<svg id="Layer_1" data-name="Layer 1" xmlns="http://www.w3.org/2000/svg" viewBox="0 0 1839 600"><defs><style>.cls-1{fill:#fff;}.cls-2{fill:#4f7eb2;}.cls-10,.cls-11,.cls-13,.cls-14,.cls-15,.cls-16,.cls-17,.cls-18,.cls-19,.cls-2,.cls-5,.cls-8,.cls-9{stroke:#231f20;}.cls-10,.cls-11,.cls-13,.cls-14,.cls-15,.cls-16,.cls-17,.cls-18,.cls-19,.cls-2,.cls-21,.cls-22,.cls-23,.cls-24,.cls-25,.cls-26,.cls-27,.cls-28,.cls-29,.cls-3,.cls-30,.cls-31,.cls-32,.cls-33,.cls-4,.cls-5,.cls-6,.cls-7,.cls-8,.cls-9{stroke-miterlimit:10;}.cls-2,.cls-5{stroke-width:1.16px;}.cls-10,.cls-13,.cls-14,.cls-15,.cls-16,.cls-17,.cls-18,.cls-19,.cls-21,.cls-22,.cls-23,.cls-24,.cls-25,.cls-26,.cls-27,.cls-28,.cls-29,.cls-3,.cls-30,.cls-31,.cls-32,.cls-4,.cls-6,.cls-7,.cls-9{fill:none;}.cls-21,.cls-22,.cls-23,.cls-24,.cls-25,.cls-26,.cls-27,.cls-28,.cls-29,.cls-3,.cls-30,.cls-31,.cls-32,.cls-33,.cls-4,.cls-6,.cls-7{stroke:#000;}.cls-4{stroke-dasharray:2.01 2.01;}.cls-5,.cls-8{fill:#f7d2e9;}.cls-6{stroke-dasharray:1.95 1.95;}.cls-7{stroke-width:0.74px;}.cls-10,.cls-11,.cls-13,.cls-14,.cls-15,.cls-16,.cls-17,.cls-18,.cls-19,.cls-8,.cls-9{stroke-width:1.07px;}.cls-10{stroke-dasharray:1.07 0.54;}.cls-11,.cls-12{fill:#feaebb;}.cls-13{stroke-dasharray:1.05 0.53;}.cls-14{stroke-dasharray:1.08 0.54;}.cls-15{stroke-dasharray:1.06 0.53;}.cls-16{stroke-dasharray:1.07 0.54;}.cls-17{stroke-dasharray:1.07 0.53;}.cls-18{stroke-dasharray:1.07 0.53;}.cls-19{stroke-dasharray:1.07 0.54;}.cls-20{fill:#202020;}.cls-21{stroke-dasharray:1.95 1.95;}.cls-22{stroke-dasharray:2.01 2.01;}.cls-23{stroke-dasharray:1.97 1.97;}.cls-24{stroke-dasharray:1.98 1.98;}.cls-25,.cls-26,.cls-27,.cls-28{stroke-width:0.74px;}.cls-26{stroke-dasharray:2.01 2.01;}.cls-27{stroke-dasharray:2.02 2.02;}.cls-28{stroke-dasharray:2.06 2.06;}.cls-29,.cls-30,.cls-31,.cls-32{stroke-width:0.99px;}.cls-30{stroke-dasharray:2.01 2.01;}.cls-31{stroke-dasharray:1.99 1.99;}.cls-32{stroke-dasharray:2.01 2.01;}.cls-33{stroke-width:0.75px;}</style></defs><rect class="cls-1" width="1839" height="600"/><path class="cls-2" d="M1397.5,145.5c1,0,167-52,167-52l3,67-83,32s-60,6-63-1S1397.5,145.5,1397.5,145.5Z"/><line class="cls-3" x1="1399.5" y1="148.5" x2="1400.45" y2="148.2"/><line class="cls-4" x1="1402.37" y1="147.59" x2="1562.08" y2="97.13"/><line class="cls-3" x1="1563.04" y1="96.83" x2="1563.99" y2="96.53"/><path class="cls-5" d="M1493.14,131.93l15.28,47.92s6.57,19.82,23.2,19.15c-20.1,24.47-6,369.39-6,369.39l-46.53,3.32s-93.17-405.49-82.29-426.55C1418.07,142.44,1469.68,142.89,1493.14,131.93Z"/><path class="cls-3" d="M1448.56,165s0,12.21-15.06,20.33a161.11,161.11,0,0,1-31.61,12.4"/><path class="cls-3" d="M1452.5,164.5s0,.36-.11,1"/><path class="cls-6" d="M1452.06,167.41a31,31,0,0,1-15.56,21.09c-12.19,6.57-26.92,11-32.09,12.48"/><path class="cls-3" d="M1403.46,201.24l-1,.26"/><path class="cls-3" d="M1500.74,154.09a183.31,183.31,0,0,1-53.57,10.69c-29.66,1.25-49.65.61-49.65.61"/><polyline class="cls-7" points="1413.5 194.5 1411.5 174.5 1440.5 172.5 1441.5 179.5"/><path class="cls-8" d="M1056.63,215.07l-24.31,148.5s20,40.25,22.17,49.54,2.14,124.76,2.14,124.76,1.43,12.87,26.45,10.73,21.1-6.08,21.1-6.08,7.5-135.49,6.07-145.14-4.29-46.47-10.36-61.84-5-32.89-10-44.69S1061,212.84,1056.63,215.07Z"/><path class="cls-9" d="M1086,486.63s1-77.09-2.24-106-34.72-106.11-34.72-106.11"/><path class="cls-9" d="M1082.83,495.74v-.54"/><path class="cls-10" d="M1082.83,494.67c0-9.93,0-86.65-3-113.71s-28.13-90.69-31.16-98.28"/><path class="cls-9" d="M1048.52,282.43c-.13-.33-.2-.49-.2-.49"/><path class="cls-9" d="M1064.35,546.36l21.77-59.61s11.73,57.82,11.71,59.88"/><path class="cls-11" d="M1082.29,417s-15.52,1.07-27.32,0"/><path class="cls-12" d="M1081.74,414.07s-15,1.3-26.77.23"/><path class="cls-9" d="M1081.74,414.07l-.53,0"/><path class="cls-13" d="M1080.69,414.15a180.87,180.87,0,0,1-24.92.22"/><path class="cls-9" d="M1055.5,414.35l-.53-.05"/><line class="cls-9" x1="1067.29" y1="547.7" x2="1067.47" y2="547.2"/><line class="cls-14" x1="1067.64" y1="546.69" x2="1084.85" y2="496.41"/><path class="cls-9" d="M1084.94,496.16l.17-.51.1.52"/><path class="cls-15" d="M1085.3,496.69c1.21,6.69,7.86,43.59,8.7,49.68"/><path class="cls-9" d="M1094,546.64c0,.26,0,.44,0,.53"/><path class="cls-8" d="M757.32,215.07l24.31,148.5s-20,40.25-22.16,49.54-2.15,124.76-2.15,124.76-1.43,12.87-26.45,10.73-21.09-6.08-21.09-6.08S702.27,407,703.7,397.38s4.29-46.47,10.37-61.84,5-32.89,10-44.69S753,212.84,757.32,215.07Z"/><path class="cls-9" d="M727.91,486.63s-1-77.09,2.24-106,34.73-106.11,34.73-106.11"/><path class="cls-9" d="M731.12,495.74v-.54"/><path class="cls-10" d="M731.12,494.67c0-9.93,0-86.65,3-113.71s28.13-90.69,31.16-98.28"/><path class="cls-9" d="M765.43,282.43c.13-.33.2-.49.2-.49"/><path class="cls-9" d="M749.61,546.36l-21.77-59.61s-11.74,57.82-11.72,59.88"/><path class="cls-11" d="M731.66,417s15.53,1.07,27.32,0"/><path class="cls-12" d="M732.21,414.07s15,1.3,26.77.23"/><path class="cls-9" d="M732.21,414.07l.53,0"/><path class="cls-13" d="M733.26,414.15a180.9,180.9,0,0,0,24.92.22"/><path class="cls-9" d="M758.45,414.35l.53-.05"/><path class="cls-8" d="M909.61,530.53c47.72,2.15,100.09-16.79,100.09-16.79s-.53-15.55-2.14-37c-1.61-28.95,17.69-100.81,24.66-113.17,9.66-23.08,24.31-148.5,24.31-148.5s-36.1-16.09-46.29-19.84-30-12.34-52-22-47.9-9.1-47.9-9.1l-3.76,0s-29-.53-50.94,9.12-41.82,18.23-52,22-46.3,19.84-46.3,19.84S772,340.49,781.63,363.57c7,12.36,20.21,82.88,22.36,113.41a259.2,259.2,0,0,1,.16,36.76s54.7,18.77,102.42,16.62Z"/><path class="cls-8" d="M911.15,141.85s21.34.29,31,1.36a21.18,21.18,0,0,1,14.3,7.51l20.26,30.59s-40.39-10.41-71.46-9.17c-26.78,1.07-68.08,9.17-68.08,9.17l20.26-30.59a21.18,21.18,0,0,1,14.3-7.51c9.65-1.07,34.85-1.43,34.85-1.43Z"/><path class="cls-9" d="M771.31,315.19s11.91,10.32,20,39.16"/><line class="cls-9" x1="746.66" y1="547.7" x2="746.49" y2="547.2"/><line class="cls-14" x1="746.31" y1="546.69" x2="729.1" y2="496.41"/><path class="cls-9" d="M729,496.16l-.18-.51-.09.52"/><path class="cls-15" d="M728.65,496.69c-1.2,6.69-7.86,43.59-8.69,49.68"/><path class="cls-9" d="M719.92,546.64c0,.26,0,.44,0,.53"/><path class="cls-9" d="M782,203.45s0,.18.08.53"/><path class="cls-16" d="M782.17,204.5c1.7,11.37,16.3,111.72,6,138.87"/><path class="cls-9" d="M788.11,343.62c-.06.17-.13.34-.2.5"/><path class="cls-9" d="M842.76,177.8l.52-.12"/><path class="cls-17" d="M843.8,177.57c6.2-1.37,39-8.3,64.38-8.35a251,251,0,0,1,63.58,8.36"/><path class="cls-9" d="M972,177.65l.51.15"/><path class="cls-9" d="M785.77,202.68s19.81,127.84,3,144.65c0,0,21.81,52.79,22.17,130.73-.36,32.53,0,37.5,0,37.5"/><path class="cls-9" d="M772.69,321.64l.3.44"/><path class="cls-18" d="M773.28,322.53c9.38,14.38,33.06,62.16,34.82,152.25-.28,26.18-1.21,34.87-1.56,37.26"/><path class="cls-9" d="M806.5,512.31a5.12,5.12,0,0,1-.1.52"/><path class="cls-9" d="M1041,315.19s-11.92,10.32-20,39.16"/><path class="cls-9" d="M1030.34,203.45s0,.18-.08.53"/><path class="cls-16" d="M1030.18,204.5c-1.7,11.37-16.31,111.72-6,138.87"/><path class="cls-9" d="M1024.23,343.62l.2.5"/><path class="cls-9" d="M1026.58,202.68s-19.82,127.84-3,144.65c0,0-21.82,52.79-22.17,130.73.35,32.53,0,37.5,0,37.5"/><path class="cls-9" d="M1039.65,321.64c-.09.15-.19.29-.29.44"/><path class="cls-18" d="M1039.07,322.53c-9.39,14.38-33.06,62.16-34.83,152.25.29,26.18,1.22,34.87,1.57,37.26"/><path class="cls-9" d="M1005.85,512.31a5.12,5.12,0,0,0,.1.52"/><path class="cls-19" d="M811,510.74s55.29,14.84,95.9,15c46,.18,97-17.15,97-17.15"/><path class="cls-20" d="M1133,268.65a23.87,23.87,0,0,0-7.38-3.45,27.53,27.53,0,0,0-9-.77c-1,.07-2.4.19-4.17.42-.88.13-1.84.27-2.87.45l-2.09.38c-.77.16-1.55.3-2.34.48-1.58.34-3.19.72-4.82,1.13L1090.18,270c-3.46,1-7,2.06-10.62,3.12s-7.21,2.31-10.83,3.53-7.22,2.51-10.75,3.86c-14.17,5.3-27.33,11.28-36.89,16-4.73,2.44-8.67,4.36-11.33,5.87l-4.19,2.28s-6.05,3.26-15.15,8.81a385.18,385.18,0,0,0-33.2,22.67c-3,2.32-6,4.62-9,7s-5.9,4.89-8.7,7.44-5.52,5.12-8,7.77c-1.28,1.29-2.46,2.65-3.65,4-.59.66-1.14,1.34-1.71,2l-.83,1c-.14.16-.28.32-.41.49l-.3.39a89,89,0,0,0-6,8.43,46.7,46.7,0,0,0-2.3,4.19c-.6,1.34-1.07,2.61-1.5,3.84s-.67,2.52-.94,3.81-.39,2.67-.57,4.12c.85-1.22,1.6-2.33,2.31-3.4s1.47-2.05,2.15-3.11,1.44-2.09,2.17-3.26,1.54-2.42,2.46-3.81a91.1,91.1,0,0,1,5.73-8l.29-.36c.12-.17.26-.32.39-.48l.8-1c.54-.64,1.07-1.29,1.63-1.93,1.15-1.25,2.29-2.56,3.52-3.82,2.42-2.55,5.06-5,7.79-7.54s5.61-4.89,8.52-7.28,5.94-4.66,8.89-7a380.73,380.73,0,0,1,32.81-22.43c9-5.49,15-8.71,15-8.71l4.14-2.26c2.63-1.49,6.53-3.38,11.21-5.8,9.45-4.66,22.46-10.56,36.48-15.79,3.49-1.34,7.07-2.54,10.63-3.82s7.17-2.34,10.7-3.49,7.07-2.11,10.5-3.08l10-2.65c1.6-.4,3.16-.77,4.68-1.1.76-.17,1.51-.31,2.25-.47l2-.36c1-.17,1.88-.31,2.71-.42,1.66-.23,3-.34,3.89-.42,3.28-.24,5.82-.35,8.28-.43A53.43,53.43,0,0,1,1133,268.65Z"/><path class="cls-20" d="M942.62,314.13a60.29,60.29,0,0,0-9.25,13.8c-2.61,5.32-10,20.48-17,34.71-2.07,4.24-4.11,8.4-6,12.3l-2.75,5.62c-.44.9-.86,1.79-1.28,2.64-.2.44-.4.87-.59,1.3l-.49,1.11c-.17.41-.36.82-.5,1.22a35,35,0,0,0-1.45,4.4,24.63,24.63,0,0,0-.62,3.35c-.28,2.08-.52,3.94-.73,5.54,0,.32-.08.64-.12.93l-.06.44v.1s.07-.07.11-.1l.24-.27,1.73-1.88,2.1-2.29c1.13-1.23,2.14-2.32,3-3.29l2.08-2.18,2.49-2.61.72-.72s.82-.84,2.32-2.3,3.67-3.54,6.39-6A135,135,0,0,1,945,363.82,99.73,99.73,0,0,1,959,357.2c1.19-.47,2.39-.85,3.56-1.27s2.37-.74,3.54-1.1,2.33-.64,3.47-.91l1.71-.38.84-.19c.14,0,.28-.07.42-.09l.34-.06a75.53,75.53,0,0,1,9.72-1.3l4.51-.31c1.38-.12,2.65-.2,3.9-.32,2.51-.25,4.9-.51,7.85-.76a37.4,37.4,0,0,0-7.66-2.51,27,27,0,0,0-4.09-.54,36.32,36.32,0,0,0-4.8,0,78.86,78.86,0,0,0-10.3,1.35l-.36.06-.44.1-.89.2-1.8.4c-1.2.29-2.42.63-3.66,1s-2.47.74-3.71,1.15-2.5.84-3.74,1.34a103,103,0,0,0-14.59,6.93,138.7,138.7,0,0,0-22.83,16.71c-2.79,2.49-5,4.62-6.53,6.12s-2.37,2.35-2.37,2.35l-1.33,1.35s0,0,0,0h0l.06-.12.56-1.23,1.26-2.58c.87-1.79,1.79-3.67,2.75-5.62l6-12.29,17-34.72A60.21,60.21,0,0,0,942.62,314.13Z"/><path class="cls-20" d="M612.4,335.81c2.44,1.7,4.47,3.07,6.68,4.32l1.69.93c.57.34,1.16.67,1.78,1,1.23.67,2.58,1.35,4.11,2.06l2.2,1c1,.48,2.23,1.18,3.95,2.08l2.84,1.51c1,.54,2.1,1.1,3.18,1.79l7,4.28,7.29,5c2.39,1.8,4.72,3.66,7,5.4,1.15.84,2.15,1.83,3.18,2.69l2.94,2.57c1.91,1.59,3.48,3.21,4.83,4.53l3.21,3.13a14.45,14.45,0,0,1,1.16,1.19l3.5,3.84c2.26,2.32,5,5.87,8.21,9.77,1.51,2,3.05,4.18,4.64,6.37L693,401l1.1,1.73c.74,1.14,1.47,2.29,2.2,3.43s1.49,2.26,2.14,3.41l1.9,3.39c1.23,2.22,2.48,4.28,3.38,6.27,1.14,2.33,2,4.21,2.78,5.69s1.14,2.64,1.48,3.4c.66,1.56,1.29,2.93,1.92,4.18.31.63.63,1.23,1,1.81l.86,1.73c1.18,2.25,2.47,4.33,4.09,6.82a78.24,78.24,0,0,0-1-7.95c-.13-.64-.26-1.29-.42-1.94s-.4-1.31-.63-2c-.46-1.36-1-2.81-1.66-4.42-.35-.79-.75-2-1.51-3.5l-2.84-5.86c-.93-2-2.21-4.16-3.47-6.44l-2-3.49c-.66-1.18-1.46-2.32-2.19-3.5l-2.27-3.53-1.13-1.76c-.41-.57-.82-1.13-1.22-1.7-1.64-2.24-3.22-4.46-4.77-6.53-3.28-4-6.12-7.64-8.44-10l-3.6-3.94s-.39-.46-1.18-1.21l-3.29-3.23c-1.4-1.35-3-3-5-4.65l-3-2.64c-1.06-.89-2.08-1.9-3.26-2.77-2.32-1.79-4.71-3.7-7.16-5.54L648.29,351l-7.2-4.4c-1.11-.7-2.22-1.28-3.27-1.83l-2.93-1.55c-1.76-.93-3-1.64-4.06-2.13l-2.27-1c-1.58-.71-3-1.3-4.36-1.81-.67-.25-1.32-.48-2-.69s-1.3-.34-1.93-.49C617.77,336.53,615.31,336.17,612.4,335.81Z"/><path class="cls-20" d="M660,401.16a60.3,60.3,0,0,0,11.44,12l5.43,4.38,28.48,22.87,13,10.45,1.2,1,.58.47a3.24,3.24,0,0,0,.52.3l1,.48.47.23.22.11.11.06.08-.12a16.52,16.52,0,0,0,1.93-3.17,9.6,9.6,0,0,0,.63-2.55,4.72,4.72,0,0,0,0-.54V447a14.84,14.84,0,0,0,0-1.81c-.06-1.13-.32-2.69-.61-4.43-.59-3.55-1.41-8.49-2.32-14-1.84-11.08-4.08-24.56-5.68-34.17-.86-5.17-1.4-8.37-1.68-10a60.15,60.15,0,0,0-4.9-15.88,60.24,60.24,0,0,0,.5,16.61c.27,1.67.8,4.87,1.65,10l5.68,34.18c.93,5.53,1.75,10.47,2.34,14,.31,1.82.52,3.12.57,4a9.61,9.61,0,0,1,0,1.29V447h0L708.15,437l-28.48-22.88-5.45-4.36A60.37,60.37,0,0,0,660,401.16Z"/><path class="cls-20" d="M1393.54,443.15c1.47-1.52,2.79-2.63,4.13-3.78s2.74-2.35,4.59-3.81a40.76,40.76,0,0,1,3.92-2.77,51.79,51.79,0,0,1,9.56-4.64l2.93-1.06c1-.36,2-.59,3-.89s2-.61,3.06-.8l3-.6,1.47-.29,1.45-.17,2.75-.34c1.75-.21,3.36-.21,4.7-.3a31.67,31.67,0,0,1,3.18,0l1.17,0,1,0c.32,0,.71,0,1.16,0l1.55.14c1.14.12,2.51.18,4,.4s3.19.48,5,.82,3.59.76,5.44,1.31l2.77.85,1.39.42,1.35.52c1.8.69,3.59,1.32,5.2,2.13l2.38,1.11c.78.34,1.46.78,2.15,1.14a68.17,68.17,0,0,1,6.09,3.7c1,.62,1.88,1.27,2.71,1.82s1.62,1,2.42,1.46c1.54,1,3,1.82,4.92,2.82a44.87,44.87,0,0,0-3.43-4.63c-.65-.67-1.34-1.33-2.12-2a20.09,20.09,0,0,0-2.7-2.09,66.56,66.56,0,0,0-6.36-3.88c-.71-.38-1.43-.85-2.24-1.2l-2.49-1.16c-1.68-.84-3.55-1.5-5.43-2.22l-1.41-.54-1.45-.45-2.89-.88c-1.92-.56-3.86-.92-5.67-1.36s-3.59-.59-5.16-.85-3-.29-4.21-.42l-1.61-.14-1.21,0-1,0-1.22,0a31.2,31.2,0,0,0-3.33,0c-1.4.1-3.07.09-4.9.31l-2.87.35-1.52.18-1.54.3-3.18.63c-1.07.19-2.13.56-3.2.83s-2.15.55-3.19.93l-3.07,1.12a53.62,53.62,0,0,0-10.11,4.92,42.7,42.7,0,0,0-4.23,3,19.08,19.08,0,0,0-6.71,10.08Z"/><path class="cls-20" d="M1455.34,442.11a36.5,36.5,0,0,0,11.43,3.5c.83.12,2.17.32,5,.65,2.53.3,5.93.64,9.61.91l2.81.18,1.44.09c.52,0,1,0,1.59,0a7,7,0,0,0,3.48-1,4.38,4.38,0,0,0,1.48-1.57,4.58,4.58,0,0,0,.56-2,8.52,8.52,0,0,0-.59-3.21c-.34-.82-.66-1.62-1-2.39s-.67-1.45-1-2.11-.6-1.27-.92-1.8c-1.17-2.19-2-3.46-2-3.46s-.66-1.11-1.85-2.83-2.91-4.06-4.93-6.58-4.3-5.25-6.45-7.91-4.15-5.27-5.72-7.51l-1.4-2.07-1.05-1.7c-.63-1-1-1.73-1.3-2.24a42.33,42.33,0,0,1-2.38-5.28,12.26,12.26,0,0,1-.8-5.31,9.53,9.53,0,0,0-1.5,5.73,15.22,15.22,0,0,0,1.85,6.34c.3.56.73,1.39,1.39,2.42.32.52.68,1.12,1.1,1.79s.92,1.36,1.45,2.16c1.62,2.32,3.68,5,5.86,7.7s4.46,5.4,6.44,7.89,3.67,4.73,4.8,6.39,1.78,2.7,1.78,2.7.81,1.22,1.91,3.28c.3.5.56,1.08.86,1.7s.64,1.25.91,2c.54,1.38,1.38,3.1,1.29,4.17a1.2,1.2,0,0,1-.58,1.05,4.16,4.16,0,0,1-1.92.48,22.32,22.32,0,0,1-2.65-.08l-2.76-.18c-3.64-.27-7-.61-9.48-.9-2.78-.32-4.11-.51-4.93-.61A53.26,53.26,0,0,0,1455.34,442.11Z"/><path d="M1257.56,418c.12-2.53,1.78-1.9,2.28,0,.73,2.73,1.29,5.22,4.53,19.72,0,.6-.81,1.08-1.32.21L1262,433l-3.69.61c-.2,1.29-.35,3.74-.39,4.89,0,.66-1.23.52-1.21,0Zm.73,12.78c0,.19,0,1.26,0,1.48l3.43-.55-2.9-12.17C1258.71,421.21,1258.35,429.07,1258.29,430.77Z"/><path d="M1273.31,417.39c0,1-1.58.8-2,.81h-.16c-2.66,0-3.75,5.58-3.7,8.68.06,3.51.32,6,2.77,8,1.2,1,3-.07,3.42.66.56.95-.45,1.3-1.33,1.31-6.23,0-7.33-8.28-6.16-13.65.61-2.87,2.25-6.71,5.82-6.77C1272.58,416.39,1273.3,416.76,1273.31,417.39Z"/><path d="M1278.36,432.19l-.16.17-.42,3.11c0,.41,0,1.59-.79,1.6-.36,0-.62-.7-.62-1,2.52-20,2.54-20,2.54-20,.13-.52.31-1.29,1-1.31a1.06,1.06,0,0,1,.86.4l.23.58a146,146,0,0,1,3.39,19.16l.2,1.78s0,0,0,.06c-.19.52-.29.74-.81.75h-.09c-.16,0-.43,0-.46-.18l-.78-5.21Zm.12-20.43,1.77-1.18.25-.12a.8.8,0,0,1,.77.68c0,.19,0,.22-.13.33l-1.38.9-1,.79a.46.46,0,0,1-.39.14.65.65,0,0,1-.67-.62C1277.7,412.24,1278.16,412,1278.48,411.76Zm.26,18.72,3.44,0-2.06-12.79Z"/><path d="M1298.06,416.62a2.73,2.73,0,0,1,4.13-.56c3.36,5.38,2.94,12.88,1.72,18.61l1.94,1.29a.67.67,0,0,1-.59,1.05l-1.91-1a3.48,3.48,0,0,1-5.59.75c-1.84-1.62-2.31-6.8-2.34-9C1295.36,424.16,1295.64,419.57,1298.06,416.62Zm2.25.27c-4,.06-4.94,19.79-.08,19.71h.17a1.76,1.76,0,0,0,1.45-1.48c0-.77-1.49-.77-1.5-1.54a.66.66,0,0,1,.18-.52,4.77,4.77,0,0,1,2,.87c.87-5.18,1.06-10.37-.67-15.34-.2-.55-.63-1.69-1.35-1.68A.69.69,0,0,0,1300.31,416.89Z"/><path d="M1312.08,435.94a5.73,5.73,0,0,1-.66-.05c-3.38-.35-3.77-8.69-4.2-18.29l-.08-1.35v-.14c0-.6,1.44-.6,1.64-.05.48.79-.43,18.68,3.34,18.61,1,0,1.23-1.58,1.25-2.32,0-3.41-.16-11.07-.39-16.36.13-.44.3-.5.79-.51s.83.07.86.54c.22,4.83.08,9.72.3,14.76C1314.92,433.17,1314.94,435.89,1312.08,435.94Z"/><path d="M1318.18,416.62c.19-.56.32-.59.9-.59.79,0,.8.34.81,1.13,0,.09,0,.44,0,.5l-.51,18.79c0,1.21-1.57,1.34-1.58.55Z"/><path d="M1322.64,417.39a1,1,0,0,1,.95-1l4.33-.08a1.49,1.49,0,0,1,.75.54.24.24,0,0,1,0,.14c0,.55-.72.81-1.16.81l-3.3.06.29,9.11,3-.49h.14c1.29,0,.81,1.25-.28,1.43l-2.74.46,0,7.16c.25,0,1.18,0,1.43,0,1.84,0,3.17-.69,3.27.57.07.94-6.08.93-6.09.41Z"/><path d="M1332.1,434.84c-.1-6.18,0-12.42.08-18.59,0-1.27.5-1.28,1.6-1.29h.27a3.87,3.87,0,0,1,4.21,4v.31c0,2-.45,4.34-2.24,5.61a10.25,10.25,0,0,1,.89,1.05c1.27,1.6,1,5.53,1.2,7.42,0,.17.19,1.43.19,1.59v.22c0,.47-.43.53-.78.54h0c-.3,0-.66,0-.78-.37,0-.91-.36-5.1-.43-6-.13-1.34-.43-3.17-2.11-3.15h-.44c0,.25-.14,1.35-.14,1.6s0,6.34,0,8.67c0,.52.1,1.1-.59,1.11a1,1,0,0,1-.83-.37Zm2-10.66c2,0,2.63-3.64,2.61-4.91s-.66-2.92-2.22-2.9a.66.66,0,0,0-.68.73c.07,2.39-.11,4.39-.07,6.84C1333.71,424.16,1333.9,424.18,1334.07,424.18Z"/><path d="M1346.05,414.86c4.92.47,4.4,12.17,4.19,15.83-.16,2-1.12,5.51-3.86,5.55-4.86.09-5.22-8.2-5.27-11.41C1341.05,421.34,1341.19,414.94,1346.05,414.86Zm-3.38,9.83c.13,8,1.65,10.22,3.6,10.18,2.69,0,2.6-7,2.57-8.74V426c0-2.12-.74-9.79-3.35-9.75-2,0-2.86,4.63-2.83,6C1342.64,423.15,1342.66,423.92,1342.67,424.69Z"/><path d="M1361.2,416.75a1,1,0,0,1,1-1l4.34-.07a1.54,1.54,0,0,1,.75.54.31.31,0,0,1,0,.13c0,.55-.73.81-1.17.82l-3.29.05.29,9.12,3-.49h.14c1.29,0,.82,1.25-.28,1.44l-2.74.45,0,7.17c.25,0,1.18,0,1.43,0,1.84,0,3.17-.68,3.28.58.07.93-6.08.93-6.09.4Z"/><path d="M1370.78,431.36c1.11.31.1,2.74,1.49,3.52h.17c1.53,0,1.94-2.15,1.92-3.28a11.27,11.27,0,0,0-.82-4.54c-1.34-2.94-4.15-5.37-4.21-8.77,0-1.54.87-4.11,2.76-4.14,1.21,0,3.23.91,3.25,2.34,0,.52-.15.82-.7.83-1.07,0-.77-1.63-2.28-1.61s-1.47,2-1.46,2.94c0,2.77,2.41,4.68,3.69,7,1.16,2.1,1.79,5.16,1.16,7.26-.41,1.44-1.62,3.4-3.29,3.43-2,0-2.71-2.48-2.73-4.13A.93.93,0,0,1,1370.78,431.36Z"/><path d="M1379.31,416c-1.7.14-2.47.13-2.53-.34,0-.93,0-1.26,2.89-1.14l2.31,0c.6,0,1.62.08,1.63.88a.62.62,0,0,1-.54.53l-2.3,0,.81,17.42c0,.24-.54.39-.71.39s-.71-.12-.72-.37Z"/><path d="M1390.15,414.12c4.93.47,4.41,12.18,4.2,15.83-.16,2-1.12,5.51-3.87,5.56-4.85.08-5.21-8.21-5.27-11.42C1385.16,420.6,1385.3,414.21,1390.15,414.12Zm-3.37,9.83c.13,8.05,1.65,10.22,3.6,10.19,2.69-.05,2.6-7,2.57-8.75v-.11c0-2.11-.74-9.79-3.35-9.75-2.06,0-2.86,4.64-2.84,6C1386.75,422.42,1386.76,423.19,1386.78,424Z"/><path d="M1257.1,464.7c0-2.2-.07-12.47,0-14.67.13-.38.82-.34,1.15-.34a5.11,5.11,0,0,1,5,5.18,8.88,8.88,0,0,1-4.62,7.63c0,.44-.1,2.58-.09,3,0,.94.06,5.16.1,6.07a1,1,0,0,1-.84.37.74.74,0,0,1-.53-.16Zm1.39-4a.83.83,0,0,0,.57-.2,6.91,6.91,0,0,0,2.44-5.37c0-1.42-1.08-4-3-3.95Z"/><path d="M1265.13,450.45c.18-.55.32-.58.9-.59.79,0,.8.34.81,1.14,0,.08,0,.44,0,.49l-.51,18.79c0,1.21-1.57,1.34-1.58.55Z"/><path d="M1269.92,451.05c-.08-1.09,1.42-1.78,2-.19l5.86,15.08c0-1.21.11-8,.23-10.66a28.77,28.77,0,0,1,.25-4.86c0-.3.3-.31.71-.31.66,0,.71,0,.7.64,0,2.86-.4,5.72-.46,8.58,0,1.59-.18,9.2-.15,10.79-.19.58-1,.27-1.27-.2s-.51-1.11-6.59-16.58l.09,16.86c0,.82-1.39.76-1.4.18Z"/><path d="M1283.69,450.58c-1.7.14-2.47.12-2.53-.34,0-.94,0-1.27,2.89-1.15l2.31,0c.6,0,1.62.08,1.63.88a.61.61,0,0,1-.54.53l-2.31,0,.82,17.42c0,.25-.55.39-.71.4s-.72-.13-.72-.38Z"/><path d="M1290.9,464.93l-.16.16-.41,3.11c0,.42,0,1.6-.8,1.61-.36,0-.62-.7-.62-1,2.52-19.95,2.55-20,2.55-20,.13-.53.31-1.3,1-1.31a1,1,0,0,1,.86.4l.23.57a144.93,144.93,0,0,1,3.4,19.16l.19,1.79s0,0,0,.05c-.18.53-.29.75-.81.76h-.08c-.16,0-.44,0-.47-.19l-.77-5.2Zm.39-1.71,3.43,0-2-12.78Z"/><path d="M1299.8,465.19c0-2.36-.19-13.34-.26-15.67v-.11a1.53,1.53,0,0,1,.77-1.5h.25a4.58,4.58,0,0,1,3.09.93c3,2.59,3.61,7.3,3.51,11-.14,5.3-1.29,10.37-5.81,11-.87.12-1.45,0-1.47-1Zm1.48-5.32c0,2.44,0,6.61.16,9.41,3.39-.58,4.23-6,4.18-9,0-2.17-.31-10.65-4.13-10.58h-.19C1301.27,451.19,1301.25,458.36,1301.28,459.87Z"/><path d="M1313.77,448.35c4.92.46,4.41,12.17,4.19,15.82-.16,2-1.11,5.51-3.86,5.56-4.86.08-5.22-8.21-5.27-11.42C1308.77,454.83,1308.91,448.43,1313.77,448.35Zm-3.38,9.83c.14,8,1.66,10.21,3.61,10.18,2.69-.05,2.6-7,2.57-8.75v-.11c0-2.11-.74-9.79-3.35-9.75-2.06,0-2.86,4.64-2.84,6C1310.37,456.64,1310.38,457.41,1310.39,458.18Z"/><path d="M1331.22,464.25l-.16.17-.41,3.11c-.05.41,0,1.59-.8,1.61-.36,0-.62-.71-.62-1,2.52-20,2.55-20,2.55-20,.13-.52.31-1.29,1-1.3a1,1,0,0,1,.86.39l.23.58a144.62,144.62,0,0,1,3.39,19.16l.2,1.78s0,0,0,.06c-.18.52-.29.74-.81.75h-.08c-.17,0-.44,0-.47-.18l-.77-5.2Zm.39-1.71,3.43,0-2-12.79Z"/><path d="M1340.1,464.82c1.1.31.1,2.74,1.49,3.52h.16c1.54,0,1.94-2.14,1.92-3.27a11.24,11.24,0,0,0-.81-4.54c-1.34-2.95-4.16-5.37-4.21-8.77,0-1.54.86-4.11,2.75-4.14,1.21,0,3.23.91,3.26,2.33,0,.53-.15.83-.7.84-1.07,0-.77-1.64-2.28-1.61s-1.48,2-1.46,2.93c0,2.78,2.41,4.69,3.68,7a10.58,10.58,0,0,1,1.17,7.26c-.42,1.43-1.62,3.4-3.3,3.43-2,0-2.7-2.48-2.73-4.13A.94.94,0,0,1,1340.1,464.82Z"/><path d="M1348,444.64l1.77-1.18.24-.11a.78.78,0,0,1,.78.67c0,.19,0,.22-.13.33l-1.38.9-1,.79a.43.43,0,0,1-.38.14.64.64,0,0,1-.67-.62C1347.18,445.12,1347.65,444.87,1348,444.64Zm.6,4.41c.18-.55.32-.58.89-.59.8,0,.81.35.82,1.14,0,.08,0,.44,0,.5l-.51,18.79c0,1.2-1.57,1.34-1.58.54Z"/><path d="M578.92,282.12l-.16.16-.47,3.1c0,.42,0,1.6-.82,1.6-.36,0-.61-.72-.61-1,2.86-19.9,2.89-20,2.89-20,.13-.52.33-1.29,1-1.29a1,1,0,0,1,.85.41l.22.58A145.44,145.44,0,0,1,584.91,285l.16,1.78s0,0,0,.06c-.19.52-.3.74-.82.74h-.08c-.17,0-.44,0-.47-.2l-.68-5.21Zm.41-1.7,3.44.08-1.84-12.82Z"/><path d="M594.43,267.24c0,1-1.59.77-2,.77h-.17c-2.66,0-3.84,5.52-3.84,8.62,0,3.51.22,6,2.63,8,1.18,1,3,0,3.41.72.55,1-.47,1.29-1.35,1.29-6.23-.14-7.19-8.4-5.93-13.76.66-2.85,2.36-6.67,5.93-6.67C593.72,266.22,594.43,266.61,594.43,267.24Z"/><path d="M599.24,282.12l-.17.16-.47,3.1c-.05.42,0,1.6-.82,1.6-.36,0-.6-.72-.6-1,2.85-19.9,2.88-20,2.88-20,.14-.52.33-1.29,1-1.29a1.05,1.05,0,0,1,.86.41l.22.58A145.42,145.42,0,0,1,605.22,285l.17,1.78s0,0,0,.06c-.19.52-.3.74-.83.74h-.08c-.16,0-.44,0-.46-.2l-.69-5.21Zm.46-20.43,1.79-1.15.24-.11a.8.8,0,0,1,.77.69c0,.19,0,.22-.13.33l-1.41.87-1,.77a.46.46,0,0,1-.39.14.64.64,0,0,1-.65-.63C598.91,262.16,599.37,261.91,599.7,261.69Zm-.05,18.73,3.43.08-1.84-12.82Z"/><path d="M622.18,268.67a5.58,5.58,0,0,1-1.48,3.76,8.36,8.36,0,0,1,4.37,8c0,3.92-2.17,7.27-6.48,7.27a1.1,1.1,0,0,1-1-.41c-.31-4.23-.31-8.43-.72-13.4l-.55-6.53v-.58C618.15,264.71,622.18,265.29,622.18,268.67Zm-3.81,3.21c1.4,0,2.33-1.59,2.33-3.1s-1.29-2.12-2.74-1.43ZM619.58,286c2.91,0,3.87-3,3.87-5.63,0-3.05-1.4-6.76-5-6.76,0,4.15.3,8.24.63,12.36A2.8,2.8,0,0,0,619.58,286Z"/><path d="M631.85,265.92c4.91.55,4.2,12.24,3.92,15.9-.19,2-1.21,5.49-3.95,5.49-4.86,0-5.08-8.29-5.08-11.51C626.74,272.32,627,265.92,631.85,265.92Zm-3.54,9.77c0,8.05,1.48,10.24,3.43,10.24,2.69,0,2.71-7,2.71-8.7v-.11c0-2.11-.57-9.8-3.18-9.8-2.06,0-2.94,4.59-2.94,6C628.31,274.16,628.31,274.93,628.31,275.69Z"/><path d="M638.74,285.66c0-6.18.22-12.41.38-18.59.06-1.26.52-1.26,1.62-1.26H641a3.87,3.87,0,0,1,4.14,4.06v.31c0,2-.52,4.33-2.33,5.57a13.56,13.56,0,0,1,.88,1.07c1.23,1.62.93,5.55,1.07,7.44,0,.16.16,1.43.16,1.59v.22c0,.47-.44.52-.8.52h0c-.3,0-.66,0-.77-.38,0-.91-.28-5.11-.33-6-.11-1.35-.39-3.19-2.06-3.19h-.44c0,.25-.16,1.35-.16,1.6s-.17,6.34-.2,8.67c0,.52.09,1.1-.6,1.1a1,1,0,0,1-.82-.38ZM640.88,275c2,0,2.69-3.6,2.69-4.86s-.61-2.94-2.17-2.94a.65.65,0,0,0-.69.71c0,2.39-.19,4.39-.19,6.84C640.52,275,640.71,275,640.88,275Z"/><path d="M647.9,282.53c0-2.36,0-13.34,0-15.68v-.11a1.52,1.52,0,0,1,.8-1.48H649a4.54,4.54,0,0,1,3.07,1c2.94,2.64,3.49,7.36,3.32,11.09-.22,5.3-1.45,10.35-6,10.9-.88.11-1.46,0-1.46-1Zm1.57-5.3c0,2.44-.06,6.62,0,9.42,3.4-.52,4.34-6,4.34-9,0-2.17-.14-10.65-4-10.65h-.19C649.61,268.56,649.47,275.72,649.47,277.23Z"/><path d="M658.91,282.12l-.16.16-.47,3.1c0,.42,0,1.6-.82,1.6-.36,0-.61-.72-.61-1,2.86-19.9,2.89-20,2.89-20,.13-.52.33-1.29,1-1.29a1,1,0,0,1,.85.41l.22.58A145.44,145.44,0,0,1,664.9,285l.16,1.78s0,0,0,.06c-.19.52-.3.74-.82.74h-.08c-.17,0-.44,0-.47-.2l-.68-5.21Zm.41-1.7,3.44.08-1.84-12.82Z"/><path d="M667.81,282.53c0-2.36,0-13.34,0-15.68v-.11a1.53,1.53,0,0,1,.79-1.48h.25a4.54,4.54,0,0,1,3.07,1c2.94,2.64,3.49,7.36,3.33,11.09-.22,5.3-1.46,10.35-6,10.9-.88.11-1.45,0-1.45-1Zm1.56-5.3c0,2.44,0,6.62,0,9.42,3.41-.52,4.34-6,4.34-9,0-2.17-.14-10.65-4-10.65h-.2C669.51,268.56,669.37,275.72,669.37,277.23Z"/><path d="M682.05,265.92c4.92.55,4.2,12.24,3.93,15.9-.19,2-1.21,5.49-4,5.49-4.86,0-5.08-8.29-5.08-11.51C677,272.32,677.19,265.92,682.05,265.92Zm-3.54,9.77c0,8.05,1.48,10.24,3.43,10.24,2.69,0,2.72-7,2.72-8.7v-.11c0-2.11-.57-9.8-3.18-9.8-2.06,0-2.94,4.59-2.94,6C678.51,274.16,678.51,274.93,678.51,275.69Z"/><path d="M579.94,320.77c.08-2.06.41-9.17.41-10.27L578,304.16c-.11-.25-.88-2.25-1-2.5a1.43,1.43,0,0,1-.2-.66c0-.3.31-.46.66-.46a1.2,1.2,0,0,1,1.16.57c.85,2.45,1.45,5.25,2.49,7.58a64.28,64.28,0,0,0,2.83-6.37c.25-.63.25-1.59,1.21-1.59.44,0,.82.08.82.52v.19c-1.12,3.1-3.18,6-4,9.17l-.49,10.46c0,.44-.49.52-.93.5h-.06c-.25,0-.55-.06-.63-.39C579.91,321.07,579.94,321,579.94,320.77Z"/><path d="M599.56,300.59c-1.7.11-2.47.08-2.52-.38.05-.94.05-1.27,2.91-1.1h2.31c.6,0,1.62.11,1.62.9a.63.63,0,0,1-.55.53H601l.52,17.43c0,.25-.55.38-.71.38s-.72-.13-.72-.38Z"/><path d="M606.54,315.06l-.17.16-.46,3.11c-.06.41,0,1.59-.83,1.59-.35,0-.6-.72-.6-1,2.85-19.9,2.88-20,2.88-20,.14-.52.33-1.29,1-1.29a1,1,0,0,1,.85.41l.22.58a145.42,145.42,0,0,1,3.07,19.22l.17,1.78s0,0,0,.06c-.19.52-.3.74-.82.74h-.09c-.16,0-.44,0-.46-.2l-.69-5.21Zm.41-1.7,3.43.08-1.84-12.82Z"/><path d="M622.05,300.18c0,1-1.59.77-2,.77h-.16c-2.67,0-3.85,5.52-3.85,8.62,0,3.51.22,6,2.64,8,1.18,1,3,0,3.4.72.55,1-.46,1.29-1.34,1.29-6.23-.14-7.2-8.4-5.93-13.76.66-2.85,2.36-6.67,5.93-6.67C621.33,299.16,622.05,299.55,622.05,300.18Z"/><path d="M625.92,312.37v7.74c0,1.24-1.51.77-1.57.41,0-1,.06-5.54.06-6.5,0-2.15.19-13.21.22-15.32a1,1,0,0,1,.77-.22c.38,0,.6.24.85.57,0,2.64-.25,6.4-.25,9.2,0,.38,0,2.14,0,2.5.22.25.41.19.66.19,1,0,2.08,0,3.1.06.22-3.11.33-8.46.25-11.95v-.13c0-.42.33-.61.71-.61a1.32,1.32,0,0,1,.91.55c0,.61-.09,2.36-.11,2.94-.39,12.6.3,19-.61,19s-1-1.16-1-3c0-.49-.14-4.94-.14-5.43Z"/><path d="M636.46,315.06l-.17.16-.46,3.11c-.06.41,0,1.59-.83,1.59-.35,0-.6-.72-.6-1,2.85-19.9,2.88-20,2.88-20,.14-.52.33-1.29,1-1.29a1,1,0,0,1,.85.41l.22.58a145.42,145.42,0,0,1,3.07,19.22l.17,1.78s0,0,0,.06c-.19.52-.3.74-.82.74h-.09c-.16,0-.43,0-.46-.2l-.69-5.21Zm.41-1.7,3.43.08-1.84-12.82Z"/><path d="M645.32,315.77c1.1.33.06,2.75,1.43,3.54h.17c1.53,0,2-2.11,2-3.24a11.25,11.25,0,0,0-.74-4.55c-1.29-3-4.06-5.44-4.06-8.84,0-1.54.93-4.09,2.83-4.09,1.21,0,3.21,1,3.21,2.39,0,.52-.17.82-.71.82-1.08,0-.75-1.65-2.26-1.65s-1.51,2-1.51,2.91c0,2.77,2.34,4.72,3.57,7a10.5,10.5,0,0,1,1,7.27c-.44,1.43-1.68,3.38-3.35,3.38-2,0-2.67-2.52-2.67-4.17A.94.94,0,0,1,645.32,315.77Z"/><path d="M1148.28,239c0-1.09,1.46-1.75,2-.16l5.6,15.18c0-1.21.24-8,.41-10.65a27.63,27.63,0,0,1,.33-4.86c0-.3.3-.3.71-.3.66,0,.72,0,.69.66-.08,2.85-.5,5.71-.61,8.56,0,1.59-.33,9.2-.33,10.79-.19.58-1,.25-1.26-.22s-.49-1.12-6.31-16.69l-.19,16.86c0,.82-1.4.74-1.4.16Z"/><path d="M1160.83,239.14a1,1,0,0,1,1-1h4.34a1.53,1.53,0,0,1,.74.55.21.21,0,0,1,0,.13c0,.55-.74.8-1.18.8h-3.3l.14,9.11,3-.43h.14c1.29,0,.8,1.26-.3,1.42l-2.75.42-.08,7.16c.25,0,1.18,0,1.43,0,1.84,0,3.18-.63,3.27.63,0,.93-6.1.82-6.1.3Z"/><path d="M1176,238.32c0,1-1.6.76-2,.76h-.17c-2.66,0-3.84,5.52-3.84,8.62,0,3.52.22,6,2.64,8,1.18,1,3,0,3.4.71.55,1-.47,1.29-1.34,1.29-6.24-.13-7.2-8.4-5.93-13.75.65-2.85,2.36-6.67,5.93-6.67C1175.24,237.3,1176,237.68,1176,238.32Z"/><path d="M1178.7,239.14a1,1,0,0,1,1-1H1184a1.53,1.53,0,0,1,.74.55.21.21,0,0,1,0,.13c0,.55-.74.8-1.18.8h-3.3l.14,9.11,3-.43h.14c1.29,0,.8,1.26-.3,1.42l-2.75.42-.08,7.16c.25,0,1.18,0,1.43,0,1.84,0,3.18-.63,3.27.63.05.93-6.1.82-6.1.3Z"/><path d="M1188,253.91c1.1.33.06,2.74,1.43,3.54h.17c1.53,0,2-2.11,2-3.24a11.33,11.33,0,0,0-.74-4.56c-1.29-3-4.06-5.43-4.06-8.84,0-1.53.93-4.09,2.83-4.09,1.2,0,3.21,1,3.21,2.39,0,.52-.17.82-.72.82-1.07,0-.74-1.64-2.25-1.64s-1.51,2-1.51,2.91c0,2.77,2.34,4.72,3.57,7a10.55,10.55,0,0,1,1,7.27c-.44,1.43-1.68,3.38-3.35,3.38-2,0-2.67-2.53-2.67-4.18A.93.93,0,0,1,1188,253.91Z"/><path d="M1196.76,238.29c.2-.55.33-.58.91-.58.8,0,.8.36.8,1.15,0,.09,0,.44,0,.5l-.83,18.78c0,1.2-1.59,1.31-1.59.52Z"/><path d="M1202.45,238.73c-1.71.11-2.48.08-2.53-.39,0-.93,0-1.26,2.91-1.1h2.31c.6,0,1.62.11,1.62.91a.62.62,0,0,1-.55.52h-2.31l.52,17.44c0,.24-.55.38-.71.38s-.72-.14-.72-.38Z"/><path d="M1213.32,237c4.91.55,4.2,12.24,3.92,15.89-.19,2-1.21,5.49-4,5.49-4.86,0-5.08-8.29-5.08-11.5C1208.21,243.39,1208.46,237,1213.32,237Zm-3.55,9.77c0,8,1.49,10.24,3.44,10.24,2.69,0,2.71-7,2.71-8.7v-.11c0-2.12-.57-9.8-3.18-9.8-2.06,0-2.94,4.58-2.94,6C1209.77,245.23,1209.77,246,1209.77,246.77Z"/><path d="M1231.27,238a2.72,2.72,0,0,1,4.14-.5c3.27,5.44,2.72,12.93,1.4,18.65l1.93,1.31a.69.69,0,0,1-.61,1.05l-1.89-1a3.48,3.48,0,0,1-5.6.66c-1.81-1.65-2.2-6.84-2.2-9.06C1228.44,245.45,1228.8,240.87,1231.27,238Zm2.25.3c-4,0-5.27,19.71-.41,19.71h.16a1.77,1.77,0,0,0,1.49-1.45c0-.77-1.49-.8-1.49-1.57a.7.7,0,0,1,.19-.52,4.82,4.82,0,0,1,2,.91c1-5.16,1.23-10.35-.41-15.35-.2-.55-.61-1.7-1.32-1.7A.74.74,0,0,0,1233.52,238.26Z"/><path d="M1245,257.5a5.57,5.57,0,0,1-.66-.05c-3.38-.41-3.63-8.76-3.9-18.37l-.06-1.34v-.14c0-.6,1.46-.58,1.65,0,.47.8-.74,18.67,3,18.67,1,0,1.26-1.56,1.29-2.3.08-3.41,0-11.07-.11-16.37.14-.44.3-.49.8-.49s.82.08.85.55c.14,4.83-.08,9.72.05,14.77C1247.85,254.79,1247.82,257.5,1245,257.5Z"/><path d="M1250.65,239.14a1,1,0,0,1,1-1H1256a1.53,1.53,0,0,1,.74.55.21.21,0,0,1,0,.13c0,.55-.75.8-1.18.8h-3.3l.14,9.11,3-.43h.14c1.29,0,.8,1.26-.3,1.42l-2.75.42-.08,7.16c.25,0,1.18,0,1.43,0,1.84,0,3.18-.63,3.27.63,0,.93-6.1.82-6.1.3Z"/><path d="M1277,241.66l-3,7.31c-.06.55-1.35.6-1.57.35a1.37,1.37,0,0,1-.19-.33c-.71-2.3-1.35-4.58-2.25-6.83-.47,5.16.11,10.43-.55,15.56a1.3,1.3,0,0,1-.85.2c-.58,0-.55-.14-.55-.66,0-.88.25-1.46.19-18.78,0-.82,1.26-1.46,1.59-.55l3.35,9.17c.8-.91,3.19-8.62,3.79-9.64.28-.55.88-.46,1.57,0,0,0,.16,9.06.19,12.93,0,2.45.16,5,.16,7.47a.88.88,0,0,1-.85.94c-.44,0-.55-.11-.71-.55C1277.44,252.7,1277.28,247.18,1277,241.66Z"/><path d="M1281.67,239.14a1,1,0,0,1,1-1H1287a1.53,1.53,0,0,1,.74.55.3.3,0,0,1,0,.13c0,.55-.74.8-1.18.8h-3.29l.14,9.11,3-.43h.14c1.29,0,.8,1.26-.3,1.42l-2.75.42-.08,7.16c.25,0,1.18,0,1.43,0,1.84,0,3.18-.63,3.26.63.06.93-6.09.82-6.09.3Z"/><path d="M1299.07,253.61c0-2.36,0-13.35,0-15.68v-.11a1.52,1.52,0,0,1,.8-1.48h.24a4.56,4.56,0,0,1,3.08,1c2.94,2.63,3.49,7.35,3.32,11.09-.22,5.3-1.45,10.35-6,10.9-.88.11-1.46,0-1.46-1.05Zm1.57-5.3c0,2.44-.06,6.61,0,9.41,3.4-.52,4.33-6,4.33-9,0-2.17-.13-10.65-4-10.65h-.19C1300.77,239.63,1300.64,246.8,1300.64,248.31Z"/><path d="M1310,238.29c.2-.55.33-.58.91-.58.8,0,.8.36.8,1.15,0,.09,0,.44,0,.5l-.82,18.78c-.06,1.2-1.6,1.31-1.6.52Z"/><path d="M1314.42,253.91c1.09.33,0,2.74,1.42,3.54h.17c1.54,0,2-2.11,2-3.24a11.16,11.16,0,0,0-.74-4.56c-1.29-3-4.06-5.43-4.06-8.84,0-1.53.93-4.09,2.83-4.09,1.21,0,3.21,1,3.21,2.39,0,.52-.16.82-.71.82-1.07,0-.74-1.64-2.26-1.64s-1.5,2-1.5,2.91c0,2.77,2.33,4.72,3.56,7a10.49,10.49,0,0,1,1,7.27c-.44,1.43-1.68,3.38-3.35,3.38-2,0-2.66-2.53-2.66-4.18A.93.93,0,0,1,1314.42,253.91Z"/><path d="M1322.4,239.14a1,1,0,0,1,1-1h4.34a1.44,1.44,0,0,1,.74.55.21.21,0,0,1,0,.13c0,.55-.74.8-1.18.8H1324l.13,9.11,3-.43h.14c1.29,0,.79,1.26-.31,1.42l-2.74.42-.08,7.16c.24,0,1.18,0,1.42,0,1.84,0,3.19-.63,3.27.63.06.93-6.09.82-6.09.3Z"/><path d="M1331.9,239c-.05-1.09,1.46-1.75,2-.16l5.6,15.18c0-1.21.25-8,.42-10.65a28.63,28.63,0,0,1,.32-4.86c0-.3.31-.3.72-.3.66,0,.71,0,.69.66-.09,2.85-.5,5.71-.61,8.56,0,1.59-.33,9.2-.33,10.79-.19.58-1,.25-1.26-.22s-.5-1.12-6.32-16.69l-.19,16.86c0,.82-1.4.74-1.4.16Zm2.31-2.47c-.3,0-.83-.19-.83-.55a2.18,2.18,0,0,1,1.9-2c1.54,0,2.25,1.67,2.66,1.67,1.35,0,.52-1.31,1.32-1.31.58,0,.74.41.74.93a1.49,1.49,0,0,1-1.7,1.54c-1.65,0-1.92-1.68-2.77-1.68S1334.73,236.5,1334.21,236.5Z"/><path d="M1344.45,239.14a1,1,0,0,1,1-1h4.34a1.53,1.53,0,0,1,.74.55.3.3,0,0,1,0,.13c0,.55-.74.8-1.18.8H1346l.14,9.11,3-.43h.14c1.29,0,.79,1.26-.3,1.42l-2.75.42-.08,7.16c.25,0,1.18,0,1.43,0,1.84,0,3.18-.63,3.26.63.06.93-6.09.82-6.09.3Z"/><path d="M1353.78,253.91c1.1.33,0,2.74,1.43,3.54h.16c1.54,0,2-2.11,2-3.24a11.33,11.33,0,0,0-.74-4.56c-1.29-3-4.07-5.43-4.07-8.84,0-1.53.94-4.09,2.83-4.09,1.21,0,3.21,1,3.21,2.39,0,.52-.16.82-.71.82-1.07,0-.74-1.64-2.25-1.64s-1.51,2-1.51,2.91c0,2.77,2.33,4.72,3.57,7a10.54,10.54,0,0,1,1,7.27c-.44,1.43-1.67,3.38-3.35,3.38-2,0-2.66-2.53-2.66-4.18A.93.93,0,0,1,1353.78,253.91Z"/><path d="M1150,286.14l-.16.16-.47,3.1c-.05.41,0,1.59-.82,1.59-.36,0-.6-.71-.6-1,2.85-19.91,2.88-20,2.88-20,.14-.52.33-1.29,1-1.29a1,1,0,0,1,.85.41l.22.58A143.41,143.41,0,0,1,1156,289l.16,1.79s0,0,0,.05c-.2.52-.31.74-.83.74h-.08c-.16,0-.44,0-.47-.19l-.68-5.21Zm.42-1.71,3.43.09L1152,271.7Z"/><path d="M1158.77,291.85s-.36-14.17-.36-16c0-.52-.33-4.72-.35-5.24v-.19a.55.55,0,0,1,.19-.5,4,4,0,0,1,.52-.05c.49,0,.71,0,.88.57a11.49,11.49,0,0,1,.16,2.8c.14,5.61.2,11.29.53,16.94h.19c1.15,0,2.25-.38,3.43-.38.44,0,.93.11.93.66a.57.57,0,0,1-.55.6Z"/><path d="M1164.87,281.11c0-3.43.41-10.46,5-10.71l.22,0c1.07,0,3.05.68,3.05,1.73a.83.83,0,0,1-.09.35c-.55,1.32-1.48-.6-3.07-.82h-.14c-2.52.33-3.43,3.71-3.43,8.29v.61l0,3c.11,1.84.69,6.2,3.16,6.2h.11c1.81-.11,2.09-3.81,2.17-5.1a16.3,16.3,0,0,0,.19-2.91c-.08-1.73-3.13.13-3.21-1.32,0-.63.77-.77,1.24-.77l.49,0c.66,0,3-.08,3,1v.52c0,.85-.25,3.89-.3,4.33-.25,2.42-.8,5.47-3.74,5.6h-.21c-4.21,0-4.51-6.67-4.53-9.6Z"/><path d="M1180.65,269.94c4.91.55,4.2,12.24,3.93,15.89-.2,2-1.21,5.49-4,5.49-4.86,0-5.08-8.29-5.08-11.5C1175.54,276.33,1175.79,269.94,1180.65,269.94Zm-3.54,9.77c0,8.05,1.48,10.24,3.43,10.24,2.69,0,2.72-7,2.72-8.7v-.11c0-2.12-.58-9.8-3.19-9.8-2.06,0-2.93,4.58-2.93,6C1177.11,278.17,1177.11,278.94,1177.11,279.71Z"/><path d="M1195.77,285.34c0-2.2.14-12.46.2-14.66.13-.38.82-.33,1.15-.33a5.12,5.12,0,0,1,4.91,5.27,8.86,8.86,0,0,1-4.75,7.55c0,.44-.13,2.58-.13,3,0,.93,0,5.16,0,6.07a1,1,0,0,1-.85.35.74.74,0,0,1-.53-.16Zm1.46-4a.86.86,0,0,0,.58-.19,6.94,6.94,0,0,0,2.52-5.33c0-1.42-1-4-2.91-4Z"/><path d="M1204.89,286.14l-.17.16-.46,3.1c-.06.41,0,1.59-.83,1.59-.35,0-.6-.71-.6-1,2.85-19.91,2.88-20,2.88-20,.14-.52.33-1.29,1-1.29a1,1,0,0,1,.85.41l.22.58a145,145,0,0,1,3.07,19.21l.17,1.79s0,0,0,.05c-.19.52-.3.74-.82.74h-.09c-.16,0-.44,0-.46-.19l-.69-5.21Zm.41-1.71,3.43.09-1.84-12.82Z"/><path d="M1212.71,289.68c0-6.18.22-12.41.39-18.59.05-1.26.52-1.26,1.61-1.26h.28a3.87,3.87,0,0,1,4.15,4.06v.3c0,2-.53,4.34-2.34,5.58a10.45,10.45,0,0,1,.88,1.07c1.24,1.62.93,5.54,1.07,7.44,0,.16.17,1.42.17,1.59v.22c0,.47-.44.52-.8.52h0c-.3,0-.66,0-.77-.38,0-.91-.27-5.11-.33-6-.11-1.35-.38-3.19-2.06-3.19h-.43a14.56,14.56,0,0,0-.17,1.59c0,.25-.16,6.35-.19,8.68,0,.52.08,1.1-.61,1.1a1,1,0,0,1-.82-.39Zm2.14-10.63c2,0,2.69-3.59,2.69-4.86s-.6-2.93-2.17-2.93a.63.63,0,0,0-.68.71c0,2.39-.19,4.39-.19,6.84C1214.5,279,1214.69,279.05,1214.85,279.05Z"/><path d="M1223.94,286.14l-.17.16-.46,3.1c-.06.41,0,1.59-.83,1.59-.35,0-.6-.71-.6-1,2.86-19.91,2.88-20,2.88-20,.14-.52.33-1.29,1-1.29a1,1,0,0,1,.85.41l.22.58a145,145,0,0,1,3.07,19.21l.17,1.79s0,0,0,.05c-.19.52-.3.74-.82.74h-.08c-.17,0-.44,0-.47-.19l-.69-5.21Zm.41-1.71,3.43.09-1.84-12.82Z"/><path d="M1241.07,272.08a1,1,0,0,1,1-1h4.34a1.53,1.53,0,0,1,.74.55.3.3,0,0,1,0,.13c0,.55-.74.8-1.18.8h-3.29l.14,9.12,3-.44h.14c1.29,0,.8,1.26-.3,1.42l-2.75.42-.08,7.16c.25,0,1.18,0,1.43,0,1.84,0,3.18-.63,3.26.63.06.93-6.09.82-6.09.3Z"/><path d="M1250.4,286.85c1.1.33.06,2.74,1.43,3.54h.16c1.54,0,2-2.11,2-3.24a11.33,11.33,0,0,0-.74-4.56c-1.29-3-4.06-5.43-4.06-8.84,0-1.53.93-4.09,2.82-4.09,1.21,0,3.22,1,3.22,2.39,0,.52-.17.83-.72.83-1.07,0-.74-1.65-2.25-1.65s-1.51,1.95-1.51,2.91c0,2.77,2.33,4.72,3.57,7,1.12,2.11,1.7,5.19,1,7.27-.44,1.43-1.67,3.38-3.35,3.38-2,0-2.66-2.53-2.66-4.17A.93.93,0,0,1,1250.4,286.85Z"/><path d="M1259.19,271.67c-1.71.11-2.48.08-2.53-.39,0-.93,0-1.26,2.91-1.09h2.31c.6,0,1.62.11,1.62.9a.62.62,0,0,1-.55.52h-2.31l.52,17.44c0,.24-.55.38-.71.38s-.72-.14-.72-.38Z"/><path d="M1266.16,286.14l-.17.16-.46,3.1c-.06.41,0,1.59-.83,1.59-.35,0-.6-.71-.6-1,2.85-19.91,2.88-20,2.88-20,.14-.52.33-1.29,1-1.29a1,1,0,0,1,.85.41l.22.58a145,145,0,0,1,3.07,19.21l.17,1.79s0,0,0,.05c-.19.52-.3.74-.82.74h-.09c-.16,0-.43,0-.46-.19l-.69-5.21Zm.41-1.71,3.43.09-1.84-12.82Z"/><path d="M1283.29,285.34c0-2.2.13-12.46.19-14.66.14-.38.82-.33,1.15-.33a5.12,5.12,0,0,1,4.92,5.27,8.88,8.88,0,0,1-4.75,7.55c0,.44-.14,2.58-.14,3,0,.93,0,5.16,0,6.07a1,1,0,0,1-.85.35.72.72,0,0,1-.52-.16Zm1.45-4a.86.86,0,0,0,.58-.19,6.94,6.94,0,0,0,2.52-5.33c0-1.42-1-4-2.91-4Z"/><path d="M1292.4,286.14l-.16.16-.47,3.1c-.06.41,0,1.59-.83,1.59-.35,0-.6-.71-.6-1,2.86-19.91,2.88-20,2.88-20,.14-.52.33-1.29,1-1.29a1,1,0,0,1,.85.41l.22.58a146.69,146.69,0,0,1,3.08,19.21l.16,1.79s0,0,0,.05c-.19.52-.3.74-.82.74h-.08c-.17,0-.44,0-.47-.19l-.69-5.21Zm.41-1.71,3.43.09-1.84-12.82Z"/><path d="M1300.22,289.68c0-6.18.22-12.41.39-18.59.05-1.26.52-1.26,1.62-1.26h.27a3.87,3.87,0,0,1,4.15,4.06v.3c0,2-.52,4.34-2.34,5.58a10.45,10.45,0,0,1,.88,1.07c1.24,1.62.94,5.54,1.07,7.44,0,.16.17,1.42.17,1.59v.22c0,.47-.44.52-.8.52h0c-.3,0-.65,0-.76-.38,0-.91-.28-5.11-.33-6-.11-1.35-.39-3.19-2.06-3.19H1302a14.56,14.56,0,0,0-.17,1.59c0,.25-.16,6.35-.19,8.68,0,.52.08,1.1-.6,1.1a1,1,0,0,1-.83-.39Zm2.14-10.63c2,0,2.7-3.59,2.7-4.86s-.61-2.93-2.17-2.93a.64.64,0,0,0-.69.71c0,2.39-.19,4.39-.19,6.84C1302,279,1302.2,279.05,1302.36,279.05Z"/><path d="M1310.44,271.67c-1.71.11-2.47.08-2.53-.39.06-.93.06-1.26,2.91-1.09h2.31c.6,0,1.62.11,1.62.9a.62.62,0,0,1-.55.52h-2.31l.52,17.44c0,.24-.55.38-.71.38s-.71-.14-.71-.38Z"/><path d="M1316,272.08a1,1,0,0,1,1-1h4.34a1.53,1.53,0,0,1,.74.55.21.21,0,0,1,0,.13c0,.55-.74.8-1.18.8h-3.3l.14,9.12,3-.44h.13c1.29,0,.8,1.26-.3,1.42l-2.74.42-.09,7.16c.25,0,1.18,0,1.43,0,1.84,0,3.18-.63,3.27.63,0,.93-6.1.82-6.1.3Z"/><path class="cls-5" d="M1478,137l15,48s6,20-8,29c30.5,8.5,217,299,217,299l40-24S1585.5,103.5,1564.5,92.5C1545.5,102.5,1503.5,132.5,1478,137Z"/><path class="cls-3" d="M1533.5,138.5s7,10,24,8a160.68,160.68,0,0,0,33-8"/><path class="cls-3" d="M1530.5,140.5a10,10,0,0,0,.51.86"/><path class="cls-21" d="M1532.16,142.93c2.79,3.39,9.31,9,21.34,7.57,14-1.65,31.38-6,37.09-7.49"/><path class="cls-3" d="M1591.54,142.76l1-.26"/><path class="cls-3" d="M1484.5,159.5a183.29,183.29,0,0,0,50-22c25-16,41-28,41-28"/><path class="cls-3" d="M1483.5,156.5l1-.25"/><path class="cls-22" d="M1486.4,155.72a186.81,186.81,0,0,0,47.1-21.22c20.35-13,34.74-23.4,39.39-26.81"/><path class="cls-3" d="M1573.7,107.09l.8-.59"/><path class="cls-3" d="M1483.5,156.5a6.85,6.85,0,0,1-.9.42"/><path class="cls-23" d="M1480.74,157.58c-4.16,1.29-13.8,3.37-33.77,3.93-24.19.68-41.94.2-47.67,0"/><path class="cls-3" d="M1398.31,161.47l-1,0"/><path class="cls-3" d="M1566.5,94.5l-.82.56"/><path class="cls-24" d="M1564,96.17c-11.33,7.63-59,39.05-84.54,44.33-25.69,5.32-71,7.49-81,7.92"/><path class="cls-3" d="M1397.5,148.46l-1,0"/><path class="cls-1" d="M1484.76,149.66a1.8,1.8,0,0,1-.3,0c.34-.48,2.62-1.77,6.31-3.11a25.9,25.9,0,0,1,6.54-1.69l.29,0c-.33.48-2.61,1.77-6.31,3.11A25.85,25.85,0,0,1,1484.76,149.66Z"/><path d="M1496.81,145.15a30,30,0,0,1-5.61,2.56,29.66,29.66,0,0,1-5.94,1.64,30.48,30.48,0,0,1,5.6-2.56,29.7,29.7,0,0,1,6-1.64m.5-.59a25.61,25.61,0,0,0-6.63,1.71c-3.8,1.38-6.72,2.94-6.52,3.48,0,.13.25.19.6.19a25.7,25.7,0,0,0,6.63-1.71c3.8-1.38,6.72-2.94,6.52-3.48-.05-.13-.26-.19-.6-.19Z"/><circle class="cls-1" cx="1491" cy="147" r="4.5"/><path d="M1491,143a4,4,0,1,1-4,4,4,4,0,0,1,4-4m0-1a5,5,0,1,0,5,5,5,5,0,0,0-5-5Z"/><path class="cls-25" d="M1501.5,154.5l.33.94"/><path class="cls-26" d="M1502.49,157.33c1.35,3.94,3.76,11.16,5,16.17,1.92,7.69,7.54,25.54-8,28.69"/><path class="cls-25" d="M1498.49,202.37l-1,.13"/><path class="cls-25" d="M1504.5,152.5l.28,1"/><path class="cls-27" d="M1505.36,155.39c1.76,6,5.75,19.55,7.14,25.11,1.92,7.69,2,22.78-14,25.71"/><path class="cls-25" d="M1497.49,206.37l-1,.13"/><path class="cls-25" d="M1488.5,158.5l.3.95"/><path class="cls-28" d="M1489.4,161.41c2,6.5,6.74,22.06,8.1,28.09,1.45,6.4,1,17.63-7.09,25.15"/><path class="cls-25" d="M1489.63,215.33q-.37.33-.78.63"/><line class="cls-29" x1="1525.5" y1="562.5" x2="1524.5" y2="562.57"/><line class="cls-30" x1="1522.49" y1="562.72" x2="1483.31" y2="565.62"/><path class="cls-29" d="M1482.31,565.7l-1,.07-.21-1"/><path class="cls-31" d="M1480.67,562.86c-7-31.55-68.21-310.09-77-394.37"/><path class="cls-29" d="M1403.6,167.49c0-.33-.07-.66-.1-1"/><line class="cls-29" x1="1699.52" y1="508.08" x2="1700.38" y2="507.58"/><line class="cls-30" x1="1702.12" y1="506.56" x2="1736.08" y2="486.8"/><path class="cls-29" d="M1737,486.29l.87-.5-.39-.92"/><path class="cls-32" d="M1736.65,483C1724,453.12,1612,188.74,1571.46,114.26"/><path class="cls-29" d="M1571,113.37l-.48-.87"/><polygon class="cls-5" points="1459.48 139.66 1463.18 167.59 1455.85 168.46 1452.84 140.65 1459.48 139.66"/><polygon class="cls-5" points="1510 124 1523 149 1529.5 145.5 1516 121 1510 124"/><path d="M194.14,227l7.4-51.71h.84l21,42.43,20.83-42.43h.82L252.5,227h-5.07l-5.11-37L224,227h-1.32l-18.5-37.26L199.13,227Z"/><path d="M262.69,175.25h29.64v5.06H267.86v16.21h24.26v5.06H267.86V221.9h24.26V227H262.69Z"/><path d="M301.29,227V175.25h1.13l34.42,39.64V175.25h5.09V227h-1.16L306.64,187.8V227Z"/><path d="M193.57,261.65h5.31l10.57,37.26,14.82-37.26h1.08L240,298.91l10.74-37.26H256l-14.86,51.71h-1l-15.34-39.13L209.2,313.36h-1Z"/><path d="M290.24,260.35a26.82,26.82,0,0,1,19.66,7.84,27.18,27.18,0,0,1-19.24,46.47,26.47,26.47,0,0,1-19.42-7.87,25.88,25.88,0,0,1-7.92-19.06,27.59,27.59,0,0,1,3.61-13.81,26.61,26.61,0,0,1,23.31-13.57Zm.22,5a21.27,21.27,0,0,0-10.88,3,21.51,21.51,0,0,0-8,8.05,22.36,22.36,0,0,0-2.89,11.3,21.75,21.75,0,0,0,21.79,21.92,22.21,22.21,0,0,0,11.15-2.92,20.93,20.93,0,0,0,8-8,22.38,22.38,0,0,0,2.87-11.26,21.86,21.86,0,0,0-2.87-11.14,21.38,21.38,0,0,0-8.08-8A21.8,21.8,0,0,0,290.46,265.38Z"/><path d="M325.83,313.36l7.41-51.71h.84l21,42.43,20.82-42.43h.83l7.44,51.71h-5.07l-5.11-37-18.28,37h-1.32L335.9,276.1l-5.08,37.26Z"/><path d="M394.39,261.65H424v5.06H399.55v16.21h24.26V288H399.55V308.3h24.26v5.06H394.39Z"/><path d="M433,313.36V261.65h1.12l34.42,39.64V261.65h5.1v51.71h-1.16L438.33,274.2v39.16Z"/><path d="M196.49,348.05h5.28v19.41l20.67-19.41h6.94l-24.84,23.2,26.77,28.51h-6.88l-22.66-24.08v24.08h-5.28Z"/><path d="M238.29,348.05h5.17v51.71h-5.17Z"/><path d="M255.31,399.76V348.05H266q11.61,0,16.84,1.86a22.51,22.51,0,0,1,11.76,9.14,27.76,27.76,0,0,1,4.24,15.51,27.16,27.16,0,0,1-3.36,13.67,21.52,21.52,0,0,1-8.72,8.72q-5.35,2.82-15,2.81Zm5-4.88h6q10.72,0,14.87-1.34a17.15,17.15,0,0,0,9.18-6.83,21,21,0,0,0,3.34-12.07A22.14,22.14,0,0,0,290,361.86a18.23,18.23,0,0,0-10.09-7.27q-4.86-1.48-16-1.48h-3.65Z"/><path d="M303.54,390.13l4.4-2.64q4.63,8.55,10.72,8.55a10.3,10.3,0,0,0,4.89-1.22,8.5,8.5,0,0,0,4.67-7.57,8.7,8.7,0,0,0-1.76-5.1c-1.61-2.3-4.57-5.06-8.85-8.3s-7-5.61-8.06-7.06a13,13,0,0,1-2.74-7.91,12,12,0,0,1,1.62-6.16,11.53,11.53,0,0,1,4.55-4.37,13.11,13.11,0,0,1,6.38-1.6,13.57,13.57,0,0,1,6.84,1.81,23.46,23.46,0,0,1,6.73,6.66l-4.22,3.2a20.15,20.15,0,0,0-5-5.1,8.58,8.58,0,0,0-4.48-1.23,7.1,7.1,0,0,0-5.12,1.9,6.23,6.23,0,0,0-2,4.68,8,8,0,0,0,.7,3.27,12,12,0,0,0,2.57,3.44c.68.66,2.9,2.38,6.68,5.17q6.7,4.95,9.21,8.82a14.25,14.25,0,0,1,2.49,7.77,13.2,13.2,0,0,1-4.27,9.78,14.38,14.38,0,0,1-10.39,4.14,15.19,15.19,0,0,1-8.54-2.51Q306.77,396,303.54,390.13Z"/><path class="cls-33" d="M536.42,62.74V59.37h18.89v3.37h-7.68v31.1h-3.52V62.74Z"/><path class="cls-33" d="M560.4,59.37h3.45V80.18A41.47,41.47,0,0,0,564,84.8a7.71,7.71,0,0,0,1.19,3.41,7.08,7.08,0,0,0,2.88,2.29,9,9,0,0,0,3.92.93,7.65,7.65,0,0,0,3.28-.73,7.16,7.16,0,0,0,2.62-2,8.17,8.17,0,0,0,1.55-3.12,25.45,25.45,0,0,0,.35-5.39V59.37h3.45V80.18a25.32,25.32,0,0,1-.9,7.46,10.5,10.5,0,0,1-10.16,7.07,12.51,12.51,0,0,1-7.15-2,9.63,9.63,0,0,1-4-5.28,28,28,0,0,1-.63-7.26Z"/><path class="cls-33" d="M605,93.84V59.37h7.15q7.74,0,11.23,1.24a15,15,0,0,1,7.84,6.09A18.55,18.55,0,0,1,634,77a18.18,18.18,0,0,1-2.24,9.12A14.37,14.37,0,0,1,626,92q-3.57,1.88-10,1.87Zm3.31-3.25h4c4.77,0,8.07-.3,9.92-.89a11.47,11.47,0,0,0,6.11-4.56,14,14,0,0,0,2.23-8,14.77,14.77,0,0,0-2.42-8.53,12.13,12.13,0,0,0-6.72-4.84c-2.16-.66-5.71-1-10.67-1h-2.43Z"/><path class="cls-33" d="M640.23,59.37h3.44V93.84h-3.44Z"/><path class="cls-33" d="M648,87.42l2.93-1.76q3.09,5.7,7.15,5.7a6.88,6.88,0,0,0,3.26-.81,5.8,5.8,0,0,0,2.32-2.17,5.58,5.58,0,0,0,.79-2.88,5.85,5.85,0,0,0-1.17-3.4,28.29,28.29,0,0,0-5.91-5.53A30,30,0,0,1,652,71.86a8.61,8.61,0,0,1-1.83-5.27,8,8,0,0,1,1.08-4.11,7.72,7.72,0,0,1,3-2.91,8.69,8.69,0,0,1,4.26-1.07,9.05,9.05,0,0,1,4.56,1.21,15.45,15.45,0,0,1,4.48,4.44l-2.81,2.13a13.49,13.49,0,0,0-3.32-3.4,5.76,5.76,0,0,0-3-.82,4.71,4.71,0,0,0-3.41,1.27,4.11,4.11,0,0,0-1.33,3.11,5.35,5.35,0,0,0,.47,2.18,7.9,7.9,0,0,0,1.71,2.3c.45.44,1.94,1.59,4.45,3.45a25,25,0,0,1,6.15,5.88,9.54,9.54,0,0,1,1.66,5.18,8.77,8.77,0,0,1-2.85,6.51,9.55,9.55,0,0,1-6.92,2.77,10.14,10.14,0,0,1-5.7-1.68A15.27,15.27,0,0,1,648,87.42Z"/><path class="cls-33" d="M675.5,59.37h19.76v3.37H679V73.55h16.17v3.37H679V90.47h16.17v3.37H675.5Z"/><path class="cls-33" d="M701.24,93.84V59.37H702l22.94,26.42V59.37h3.4V93.84h-.77L704.8,67.74v26.1Zm20.5-41.95,1.64,2.27a11.94,11.94,0,0,1-2.84,1.66,6.94,6.94,0,0,1-2.45.43,7.87,7.87,0,0,1-3.47-.87,14,14,0,0,0-2-.86,4.36,4.36,0,0,0-2.77.12A11.13,11.13,0,0,0,707.75,56l-1.54-2.39a6.9,6.9,0,0,1,5.27-2.3,8.85,8.85,0,0,1,3.58,1,8,8,0,0,0,3.15.94A7.91,7.91,0,0,0,721.74,51.89Z"/><path class="cls-33" d="M753.14,58.5a17.88,17.88,0,0,1,13.11,5.23,18.3,18.3,0,0,1,0,25.71,17.48,17.48,0,0,1-12.84,5.27,17.66,17.66,0,0,1-12.95-5.25,17.27,17.27,0,0,1-5.27-12.7,18.35,18.35,0,0,1,2.4-9.21,17.75,17.75,0,0,1,15.54-9Zm.15,3.35a14.77,14.77,0,0,0-12.61,7.37,15,15,0,0,0-1.92,7.53,14.49,14.49,0,0,0,14.53,14.61,14.73,14.73,0,0,0,7.43-2,14,14,0,0,0,5.33-5.32A14.93,14.93,0,0,0,768,76.58a14.54,14.54,0,0,0-1.91-7.42,14.17,14.17,0,0,0-5.39-5.31A14.55,14.55,0,0,0,753.29,61.85Z"/><path class="cls-33" d="M823.84,65.77l-2.72,2.08a14.92,14.92,0,0,0-5.4-4.44,15.78,15.78,0,0,0-6.93-1.51,15.3,15.3,0,0,0-7.64,2,14.22,14.22,0,0,0-5.45,5.32,14.71,14.71,0,0,0-1.93,7.51,14.1,14.1,0,0,0,4.32,10.52A15,15,0,0,0,809,91.45a15.35,15.35,0,0,0,12.12-5.67l2.72,2.06a17.45,17.45,0,0,1-6.44,5.08,20.25,20.25,0,0,1-8.61,1.79q-9,0-14.27-6a18.2,18.2,0,0,1-4.39-12.28,17.07,17.07,0,0,1,5.31-12.74,18.3,18.3,0,0,1,13.3-5.17,19.55,19.55,0,0,1,8.72,1.91A16.87,16.87,0,0,1,823.84,65.77Z"/><path class="cls-33" d="M847.17,58.5a17.88,17.88,0,0,1,13.11,5.23,18.3,18.3,0,0,1,0,25.71,17.48,17.48,0,0,1-12.84,5.27,17.66,17.66,0,0,1-13-5.25,17.27,17.27,0,0,1-5.27-12.7,18.35,18.35,0,0,1,2.4-9.21,17.46,17.46,0,0,1,6.56-6.65A17.64,17.64,0,0,1,847.17,58.5Zm.15,3.35a14.74,14.74,0,0,0-12.6,7.37,14.86,14.86,0,0,0-1.93,7.53,14.49,14.49,0,0,0,14.53,14.61,14.73,14.73,0,0,0,7.43-2,14,14,0,0,0,5.33-5.32A14.93,14.93,0,0,0,862,76.58a14.54,14.54,0,0,0-1.91-7.42,14.17,14.17,0,0,0-5.39-5.31A14.55,14.55,0,0,0,847.32,61.85Z"/><path class="cls-33" d="M870.9,93.84l4.94-34.47h.56l14,28.29,13.88-28.29h.56l5,34.47h-3.38L903,69.19,890.83,93.84H890L877.62,69l-3.39,24.84Z"/><path class="cls-33" d="M933,58.5a17.88,17.88,0,0,1,13.11,5.23,18.33,18.33,0,0,1,0,25.71,17.48,17.48,0,0,1-12.84,5.27,17.66,17.66,0,0,1-12.95-5.25,17.27,17.27,0,0,1-5.27-12.7,18.35,18.35,0,0,1,2.4-9.21,17.75,17.75,0,0,1,15.54-9Zm.15,3.35a14.77,14.77,0,0,0-12.61,7.37,15,15,0,0,0-1.92,7.53,14.49,14.49,0,0,0,14.53,14.61,14.73,14.73,0,0,0,7.43-2,14,14,0,0,0,5.33-5.32,15,15,0,0,0,1.91-7.51,14.64,14.64,0,0,0-1.91-7.42,14.17,14.17,0,0,0-5.39-5.31A14.55,14.55,0,0,0,933.15,61.85Z"/><path class="cls-33" d="M969,59.37h3.75L984.14,86l11.61-26.63h3.75l-15,34.47h-.75Z"/><path class="cls-33" d="M1021.71,58.5a17.88,17.88,0,0,1,13.11,5.23,18.3,18.3,0,0,1,0,25.71A17.48,17.48,0,0,1,1022,94.71a17.66,17.66,0,0,1-13-5.25,17.27,17.27,0,0,1-5.27-12.7,18.35,18.35,0,0,1,2.4-9.21,17.75,17.75,0,0,1,15.54-9Zm.15,3.35a14.77,14.77,0,0,0-12.61,7.37,15,15,0,0,0-1.92,7.53,14.49,14.49,0,0,0,14.53,14.61,14.73,14.73,0,0,0,7.43-2,14,14,0,0,0,5.33-5.32,14.93,14.93,0,0,0,1.91-7.51,14.54,14.54,0,0,0-1.91-7.42,14.17,14.17,0,0,0-5.39-5.31A14.55,14.55,0,0,0,1021.86,61.85Z"/><path class="cls-33" d="M1043.45,87.42l2.93-1.76q3.09,5.7,7.15,5.7a6.81,6.81,0,0,0,3.25-.81,5.67,5.67,0,0,0,2.32-2.17,5.59,5.59,0,0,0,.8-2.88,5.85,5.85,0,0,0-1.17-3.4,28.29,28.29,0,0,0-5.91-5.53,30,30,0,0,1-5.36-4.71,8.61,8.61,0,0,1-1.83-5.27,8,8,0,0,1,1.08-4.11,7.65,7.65,0,0,1,3-2.91A8.63,8.63,0,0,1,1054,58.5a9,9,0,0,1,4.56,1.21,15.47,15.47,0,0,1,4.49,4.44l-2.81,2.13a13.49,13.49,0,0,0-3.32-3.4,5.77,5.77,0,0,0-3-.82,4.72,4.72,0,0,0-3.41,1.27,4.13,4.13,0,0,0-1.32,3.11,5.35,5.35,0,0,0,.47,2.18,7.9,7.9,0,0,0,1.71,2.3c.45.44,1.94,1.59,4.45,3.45a24.89,24.89,0,0,1,6.14,5.88,9.47,9.47,0,0,1,1.67,5.18,8.77,8.77,0,0,1-2.85,6.51,9.56,9.56,0,0,1-6.93,2.77,10.13,10.13,0,0,1-5.69-1.68A15.18,15.18,0,0,1,1043.45,87.42Z"/><path class="cls-33" d="M1113.1,90.1l5.11,6.46H1114l-3.51-4.46A18.58,18.58,0,0,1,1088,89.46a17.27,17.27,0,0,1-5.27-12.7,18.48,18.48,0,0,1,2.41-9.23,17.46,17.46,0,0,1,6.57-6.64,18.07,18.07,0,0,1,9.13-2.39A17.93,17.93,0,0,1,1119,76.62a18.1,18.1,0,0,1-1.44,7.29A19.18,19.18,0,0,1,1113.1,90.1ZM1111,87.4a14.5,14.5,0,0,0,4.5-10.81,14.65,14.65,0,0,0-1.91-7.43,14.29,14.29,0,0,0-5.38-5.31,14.38,14.38,0,0,0-14.6,0,14.19,14.19,0,0,0-5.34,5.37,15.07,15.07,0,0,0-1.93,7.55,14.12,14.12,0,0,0,4.25,10.38,14,14,0,0,0,10.24,4.23,14.57,14.57,0,0,0,7.5-2l-7.68-9.74h4.19Z"/><path class="cls-33" d="M1126.13,59.37h3.45V80.18a44.29,44.29,0,0,0,.14,4.62,7.6,7.6,0,0,0,1.2,3.41,7,7,0,0,0,2.88,2.29,9,9,0,0,0,3.91.93,7.62,7.62,0,0,0,3.28-.73,7.2,7.2,0,0,0,2.63-2,8.31,8.31,0,0,0,1.55-3.12,26.18,26.18,0,0,0,.35-5.39V59.37H1149V80.18a25.32,25.32,0,0,1-.9,7.46,10.13,10.13,0,0,1-3.61,5,10.31,10.31,0,0,1-6.55,2.11,12.56,12.56,0,0,1-7.15-2,9.61,9.61,0,0,1-4-5.28,27.86,27.86,0,0,1-.64-7.26Z"/><path class="cls-33" d="M1157,59.37h3.44V93.84H1157Z"/><path class="cls-33" d="M1168.32,59.37h19.76v3.37h-16.31V73.55h16.17v3.37h-16.17V90.47h16.17v3.37h-19.62Z"/><path class="cls-33" d="M1194.22,59.37h6.87a40.94,40.94,0,0,1,7.78.47,8.86,8.86,0,0,1,5,3,8.61,8.61,0,0,1,1.92,5.69,9.2,9.2,0,0,1-1.32,4.95,8.25,8.25,0,0,1-3.79,3.23,17.38,17.38,0,0,1-6.79,1.12l12.4,16H1212l-12.4-16h-1.94v16h-3.45Zm3.45,3.37V74.46l5.94.05a14.64,14.64,0,0,0,5.1-.66,5.31,5.31,0,0,0,2.58-2.1,5.8,5.8,0,0,0,.93-3.22,5.53,5.53,0,0,0-.94-3.15,5.23,5.23,0,0,0-2.46-2,14.9,14.9,0,0,0-5.07-.61Z"/><path class="cls-33" d="M1237.25,59.37l16.08,34.47h-3.72l-5.42-11.34h-14.86L1224,93.84h-3.84l16.29-34.47Zm-.43,7.32-5.91,12.48h11.79Z"/><path class="cls-33" d="M1255.11,87.42l2.93-1.76q3.09,5.7,7.15,5.7a6.85,6.85,0,0,0,3.26-.81,5.73,5.73,0,0,0,2.32-2.17,5.58,5.58,0,0,0,.79-2.88,5.85,5.85,0,0,0-1.17-3.4,28.18,28.18,0,0,0-5.9-5.53,29.82,29.82,0,0,1-5.37-4.71,8.61,8.61,0,0,1-1.83-5.27,8,8,0,0,1,1.08-4.11,7.72,7.72,0,0,1,3-2.91,8.69,8.69,0,0,1,4.26-1.07,9.05,9.05,0,0,1,4.56,1.21,15.59,15.59,0,0,1,4.49,4.44l-2.82,2.13a13.49,13.49,0,0,0-3.31-3.4,5.8,5.8,0,0,0-3-.82,4.71,4.71,0,0,0-3.41,1.27,4.11,4.11,0,0,0-1.33,3.11,5.35,5.35,0,0,0,.47,2.18,8.08,8.08,0,0,0,1.71,2.3c.46.44,1.94,1.59,4.46,3.45a25.07,25.07,0,0,1,6.14,5.88,9.46,9.46,0,0,1,1.66,5.18,8.77,8.77,0,0,1-2.85,6.51,9.54,9.54,0,0,1-6.92,2.77,10.16,10.16,0,0,1-5.7-1.68A15.27,15.27,0,0,1,1255.11,87.42Z"/><path class="cls-20" d="M1668.9,179.89a51.44,51.44,0,0,0-11.62,12c-.69,1-1.78,2.51-4,5.81-2.53,3.82-6.68,10.35-9.76,16.19-.81,1.44-1.5,2.86-2.16,4.14s-1.26,2.43-1.71,3.43l-1.48,3.23-.34.73c-.22.47-.55,1.15-.9,2s-.78,1.9-1.26,3c-.24.58-.49,1.19-.76,1.82l-.72,2a123.05,123.05,0,0,0-5.11,17.32c-1.13,5.22-1.44,8.54-1.7,10.24a46.14,46.14,0,0,0-.26,4.76c0,.72,0,1.42,0,2.09a19.69,19.69,0,0,0,.2,2.06,13.08,13.08,0,0,0,1.19,4,6.94,6.94,0,0,0,3,3.14,6.7,6.7,0,0,1-1.13-3.65,19.69,19.69,0,0,1,.26-3.51l.3-1.83c.12-.65.24-1.31.34-2,.23-1.37.35-2.86.57-4.53s.57-4.8,1.67-9.82a119.25,119.25,0,0,1,4.91-16.7l.7-1.94c.25-.61.49-1.2.73-1.76l1.22-3c.33-.85.65-1.51.86-2l.33-.71,1.45-3.13c.44-1,1-2.09,1.68-3.34s1.3-2.63,2.11-4c3-5.69,7.08-12.09,9.55-15.86,2.15-3.24,3.21-4.78,3.88-5.72A73.76,73.76,0,0,0,1668.9,179.89Z"/><path class="cls-20" d="M1619.09,224.78a52,52,0,0,0,0,16.67c.18,1.15.47,3,1.16,6.92,1,5.88,3,15.74,5.15,24,.52,2.08,1,4.06,1.53,5.86.24.9.48,1.76.7,2.56a10,10,0,0,0,1.11,2.71,5.46,5.46,0,0,0,1.21,1.39,4.23,4.23,0,0,0,4.33.58,5,5,0,0,0,1.48-1c.27-.28.35-.39.36-.39a7.27,7.27,0,0,0,.81-1.2,11.26,11.26,0,0,0,.65-1.38c.17-.46.36-1,.58-1.57.83-2.26,2-5.4,3.26-8.93s2.78-7.35,4.34-11a103.71,103.71,0,0,1,4.74-9.87,32.25,32.25,0,0,1,5.69-7.6,31.85,31.85,0,0,1,6.28-4.71,18.4,18.4,0,0,1,7.09-2.52,13.9,13.9,0,0,0-8.24-.55,17.65,17.65,0,0,0-8.21,4.56,35.35,35.35,0,0,0-6.51,8.6c-3.36,5.91-6.77,14.47-9.38,21.56-1.29,3.53-2.43,6.68-3.26,9l-.54,1.47a7.79,7.79,0,0,1-.38.83,2.34,2.34,0,0,1-.34.51l-.08.09h0l-.09-.13a5.91,5.91,0,0,1-.59-1.55c-.22-.79-.45-1.64-.69-2.52-.47-1.79-1-3.74-1.5-5.79-2.08-8.19-4.08-17.92-5.09-23.72-.68-3.85-1-5.7-1.16-6.84A72.67,72.67,0,0,0,1619.09,224.78Z"/><path d="M1636.48,126.15l-.17.17-.47,3.1c0,.41,0,1.59-.82,1.59-.36,0-.6-.71-.6-1,2.85-19.9,2.88-20,2.88-20,.14-.53.33-1.29,1-1.29a1,1,0,0,1,.85.41l.22.57a145.42,145.42,0,0,1,3.07,19.22l.17,1.79s0,0,0,0c-.19.52-.3.74-.83.74h-.08c-.16,0-.44,0-.46-.19l-.69-5.22Zm.41-1.7,3.43.08-1.84-12.82Z"/><path d="M1652,111.27c0,1-1.6.77-2,.77h-.16c-2.67,0-3.85,5.52-3.85,8.62,0,3.52.22,6,2.64,8,1.18,1,3,0,3.4.71.55,1-.47,1.29-1.34,1.29-6.24-.13-7.2-8.4-5.93-13.75.66-2.86,2.36-6.67,5.93-6.67C1651.27,110.26,1652,110.64,1652,111.27Z"/><path d="M1656.79,126.15l-.16.17-.47,3.1c-.06.41,0,1.59-.83,1.59-.35,0-.6-.71-.6-1,2.86-19.9,2.88-20,2.88-20,.14-.53.33-1.29,1-1.29a1,1,0,0,1,.85.41l.22.57a145.42,145.42,0,0,1,3.07,19.22l.17,1.79s0,0,0,0c-.19.52-.3.74-.82.74H1662c-.17,0-.44,0-.47-.19l-.69-5.22Zm.47-20.42,1.78-1.16.25-.1a.8.8,0,0,1,.77.68c0,.19,0,.22-.14.33l-1.4.88-1,.77a.44.44,0,0,1-.38.14.65.65,0,0,1-.66-.64C1656.46,106.19,1656.93,106,1657.26,105.73Zm-.06,18.72,3.43.08-1.84-12.82Z"/><path d="M1674.63,131.86s-.36-14.16-.36-16c0-.52-.32-4.72-.35-5.24v-.2a.53.53,0,0,1,.19-.49,2.78,2.78,0,0,1,.52-.05c.5,0,.72,0,.88.57a12,12,0,0,1,.17,2.8c.13,5.6.19,11.29.52,16.94h.19c1.15,0,2.25-.38,3.43-.38.44,0,.93.11.93.66a.57.57,0,0,1-.55.6Z"/><path d="M1685.39,110c4.92.54,4.2,12.24,3.93,15.89-.19,2-1.21,5.49-4,5.49-4.86,0-5.08-8.29-5.08-11.5C1680.29,116.35,1680.53,110,1685.39,110Zm-3.54,9.77c0,8,1.48,10.24,3.43,10.24,2.69,0,2.72-7,2.72-8.7v-.11c0-2.12-.58-9.8-3.18-9.8-2.06,0-2.94,4.58-2.94,6C1681.85,118.19,1681.85,119,1681.85,119.73Z"/><path d="M1703.34,110.92a2.73,2.73,0,0,1,4.15-.5c3.27,5.44,2.72,12.93,1.4,18.64l1.92,1.32a.68.68,0,0,1-.6,1l-1.9-1a3.48,3.48,0,0,1-5.6.66c-1.81-1.65-2.19-6.84-2.19-9.06C1700.52,118.41,1700.87,113.83,1703.34,110.92Zm2.26.3c-4,0-5.27,19.71-.42,19.71h.17a1.77,1.77,0,0,0,1.48-1.45c0-.77-1.48-.8-1.48-1.57a.7.7,0,0,1,.19-.52,4.83,4.83,0,0,1,2,.9c1-5.16,1.24-10.35-.41-15.34-.19-.55-.6-1.7-1.32-1.7A.66.66,0,0,0,1705.6,111.22Z"/><path d="M1717,130.46a5.73,5.73,0,0,1-.66-.05c-3.37-.41-3.62-8.76-3.89-18.37l-.06-1.34v-.14c0-.6,1.46-.58,1.65,0,.47.8-.74,18.67,3,18.67,1,0,1.26-1.56,1.29-2.31.08-3.4,0-11.06-.11-16.36.14-.44.3-.49.8-.49s.82.08.85.55c.13,4.83-.09,9.72,0,14.77C1719.93,127.75,1719.9,130.46,1717,130.46Z"/><path d="M1723.47,111.25c.19-.55.33-.58.9-.58.8,0,.8.36.8,1.15,0,.09,0,.44,0,.5l-.82,18.77c-.06,1.21-1.6,1.32-1.6.53Z"/><path d="M1727.91,112.1a1,1,0,0,1,1-1h4.34a1.44,1.44,0,0,1,.74.55.21.21,0,0,1,0,.13c0,.55-.74.8-1.18.8h-3.29l.13,9.11,3-.44h.13c1.3,0,.8,1.27-.3,1.43l-2.74.41-.08,7.17c.24,0,1.18,0,1.42,0,1.84,0,3.19-.64,3.27.63,0,.93-6.09.82-6.09.3Z"/><path d="M1737.08,129.69c0-6.17.22-12.4.39-18.58,0-1.26.52-1.26,1.62-1.26h.27a3.87,3.87,0,0,1,4.15,4.06v.3c0,2-.53,4.34-2.34,5.57a11.66,11.66,0,0,1,.88,1.07c1.24,1.62.93,5.55,1.07,7.44,0,.17.17,1.43.17,1.6v.22c0,.46-.44.52-.8.52h0c-.3,0-.66,0-.77-.39,0-.9-.27-5.1-.33-6-.11-1.34-.38-3.18-2.06-3.18h-.43a14.3,14.3,0,0,0-.17,1.59c0,.25-.16,6.34-.19,8.68,0,.52.08,1.1-.61,1.1a1,1,0,0,1-.82-.39Zm2.14-10.62c2,0,2.69-3.6,2.69-4.86s-.6-2.94-2.17-2.94a.64.64,0,0,0-.68.72c0,2.39-.19,4.39-.19,6.83C1738.87,119,1739.06,119.07,1739.22,119.07Z"/><path d="M1751.36,110c4.91.54,4.2,12.24,3.92,15.89-.19,2-1.21,5.49-4,5.49-4.86,0-5.08-8.29-5.08-11.5C1746.25,116.35,1746.5,110,1751.36,110Zm-3.54,9.77c0,8,1.48,10.24,3.43,10.24,2.69,0,2.71-7,2.71-8.7v-.11c0-2.12-.57-9.8-3.18-9.8-2.06,0-2.94,4.58-2.94,6C1747.82,118.19,1747.82,119,1747.82,119.73Z"/><path d="M1634.42,159.51c0-2.37,0-13.35,0-15.68v-.11a1.52,1.52,0,0,1,.79-1.48h.25a4.53,4.53,0,0,1,3.08,1c2.93,2.63,3.48,7.35,3.32,11.09-.22,5.3-1.46,10.35-6,10.9-.88.11-1.45,0-1.45-1.05Zm1.56-5.3c0,2.44,0,6.61,0,9.41,3.41-.52,4.34-6,4.34-9,0-2.17-.14-10.66-4-10.66h-.2C1636.12,145.53,1636,152.7,1636,154.21Z"/><path d="M1644.63,145a1,1,0,0,1,1-1h4.34a1.53,1.53,0,0,1,.74.55.21.21,0,0,1,0,.13c0,.55-.75.8-1.18.8h-3.3l.14,9.11,3-.44h.14c1.29,0,.8,1.27-.3,1.43l-2.75.41-.08,7.17c.25,0,1.18,0,1.43,0,1.84,0,3.18-.63,3.27.63,0,.93-6.1.82-6.1.3Z"/><path d="M1662,145a1,1,0,0,1,1-1h4.34a1.48,1.48,0,0,1,.74.55.21.21,0,0,1,0,.13c0,.55-.74.8-1.18.8h-3.3l.14,9.11,3-.44h.13c1.29,0,.8,1.27-.3,1.43l-2.74.41-.09,7.17c.25,0,1.18,0,1.43,0,1.84,0,3.19-.63,3.27.63,0,.93-6.1.82-6.1.3Z"/><path d="M1671.37,159.81c1.09.33.05,2.74,1.42,3.54h.17c1.54,0,2-2.11,2-3.24a11.17,11.17,0,0,0-.75-4.56c-1.29-3-4.06-5.43-4.06-8.84,0-1.54.93-4.09,2.83-4.09,1.21,0,3.21,1,3.21,2.39,0,.52-.16.82-.71.82-1.07,0-.74-1.64-2.25-1.64s-1.51,1.95-1.51,2.91c0,2.77,2.33,4.72,3.56,7a10.53,10.53,0,0,1,1,7.28c-.44,1.43-1.68,3.38-3.35,3.38-2,0-2.66-2.53-2.66-4.18A.93.93,0,0,1,1671.37,159.81Z"/><path d="M1680.15,144.63c-1.7.11-2.47.08-2.52-.39,0-.93,0-1.26,2.91-1.1h2.3c.61,0,1.62.11,1.62.91a.61.61,0,0,1-.55.52h-2.3l.52,17.43c0,.25-.55.39-.72.39s-.71-.14-.71-.39Z"/><path d="M1685.7,145a1,1,0,0,1,1-1H1691a1.51,1.51,0,0,1,.75.55.3.3,0,0,1,0,.13c0,.55-.74.8-1.18.8h-3.29l.14,9.11,3-.44h.14c1.29,0,.79,1.27-.3,1.43l-2.75.41-.08,7.17c.25,0,1.18,0,1.43,0,1.83,0,3.18-.63,3.26.63.06.93-6.09.82-6.09.3Z"/><path d="M1710.79,144.21c0,1-1.6.77-2,.77h-.17c-2.66,0-3.84,5.52-3.84,8.62,0,3.52.22,6,2.64,8,1.18,1,3,0,3.4.71.55,1-.47,1.29-1.34,1.29-6.24-.13-7.2-8.4-5.93-13.75.65-2.86,2.36-6.67,5.93-6.67C1710.07,143.2,1710.79,143.58,1710.79,144.21Z"/><path d="M1717.35,142.9c4.91.55,4.2,12.24,3.92,15.89-.19,2-1.21,5.49-4,5.49-4.86,0-5.08-8.29-5.08-11.5C1712.24,149.29,1712.49,142.9,1717.35,142.9Zm-3.54,9.77c0,8,1.48,10.24,3.43,10.24,2.69,0,2.71-7,2.71-8.7v-.11c0-2.12-.57-9.8-3.18-9.8-2.06,0-2.94,4.58-2.94,5.95C1713.81,151.13,1713.81,151.9,1713.81,152.67Z"/><path d="M1724.29,164.8s-.36-14.16-.36-16c0-.52-.32-4.72-.35-5.24v-.19a.54.54,0,0,1,.19-.5,2.78,2.78,0,0,1,.52-.05c.5,0,.72,0,.88.57a11.46,11.46,0,0,1,.16,2.8c.14,5.6.2,11.29.53,16.94h.19c1.15,0,2.25-.38,3.43-.38.44,0,.93.11.93.66a.57.57,0,0,1-.55.6Z"/><path d="M1735.05,142.9c4.92.55,4.2,12.24,3.93,15.89-.19,2-1.21,5.49-4,5.49-4.85,0-5.07-8.29-5.07-11.5C1730,149.29,1730.19,142.9,1735.05,142.9Zm-3.54,9.77c0,8,1.48,10.24,3.43,10.24,2.69,0,2.72-7,2.72-8.7v-.11c0-2.12-.58-9.8-3.18-9.8-2.06,0-2.94,4.58-2.94,5.95C1731.51,151.13,1731.51,151.9,1731.51,152.67Z"/><path d="M1741.94,162.64c0-6.18.22-12.41.39-18.59.05-1.26.52-1.26,1.62-1.26h.27a3.87,3.87,0,0,1,4.15,4.06v.3c0,2-.53,4.34-2.34,5.57a10.59,10.59,0,0,1,.88,1.08c1.24,1.62.93,5.54,1.07,7.44,0,.16.17,1.42.17,1.59v.22c0,.46-.44.52-.8.52h0c-.3,0-.66,0-.77-.39,0-.9-.27-5.1-.33-6-.1-1.34-.38-3.18-2-3.18h-.44a14.56,14.56,0,0,0-.17,1.59c0,.25-.16,6.34-.19,8.68,0,.52.08,1.1-.6,1.1a1,1,0,0,1-.83-.39Zm2.14-10.63c2,0,2.69-3.6,2.69-4.86s-.6-2.94-2.16-2.94a.64.64,0,0,0-.69.72c0,2.39-.19,4.39-.19,6.83C1743.73,152,1743.92,152,1744.08,152Z"/><circle class="cls-33" cx="158.5" cy="200.5" r="8"/><circle class="cls-33" cx="158.5" cy="287.5" r="8"/><circle class="cls-33" cx="158.5" cy="374.5" r="8"/></svg>